<?xml version="1.0" encoding="UTF-8" standalone="no"?>
<!-- Created with Inkscape (http://www.inkscape.org/) -->

<svg
   xmlns:dc="http://purl.org/dc/elements/1.1/"
   xmlns:cc="http://creativecommons.org/ns#"
   xmlns:rdf="http://www.w3.org/1999/02/22-rdf-syntax-ns#"
   xmlns:svg="http://www.w3.org/2000/svg"
   xmlns="http://www.w3.org/2000/svg"
   xmlns:sodipodi="http://sodipodi.sourceforge.net/DTD/sodipodi-0.dtd"
   xmlns:inkscape="http://www.inkscape.org/namespaces/inkscape"
   width="744.09448819"
   height="1052.3622047"
   id="svg2"
   version="1.1"
   inkscape:version="0.48.4 r9939"
   sodipodi:docname="logo-trail.svg">
  <defs
     id="defs4" />
  <sodipodi:namedview
     id="base"
     pagecolor="#ffffff"
     bordercolor="#666666"
     borderopacity="1.0"
     inkscape:pageopacity="0.0"
     inkscape:pageshadow="2"
     inkscape:zoom="1.3062462"
     inkscape:cx="171.71487"
     inkscape:cy="160.56189"
     inkscape:document-units="px"
     inkscape:current-layer="layer1"
     showgrid="false"
     inkscape:window-width="1366"
     inkscape:window-height="744"
     inkscape:window-x="0"
     inkscape:window-y="24"
     inkscape:window-maximized="1" />
  <metadata
     id="metadata7">
    <rdf:RDF>
      <cc:Work
         rdf:about="">
        <dc:format>image/svg+xml</dc:format>
        <dc:type
           rdf:resource="http://purl.org/dc/dcmitype/StillImage" />
        <dc:title></dc:title>
      </cc:Work>
    </rdf:RDF>
  </metadata>
  <g
     inkscape:label="Layer 1"
     inkscape:groupmode="layer"
     id="layer1">
    <path
       style="fill:#008c19;fill-opacity:1"
       d="m 46.543995,929.41677 c -2.396147,-0.0198 -4.730175,0.64957 -7.241312,2.04973 -2.153535,1.20077 -5.832723,4.83143 -7.542044,7.44708 -1.491051,2.28165 -3.639035,6.74778 -4.558462,9.48097 -6.348928,18.87346 -2.592625,42.53635 8.428407,53.13465 2.303895,2.2155 5.074897,3.8928 7.383766,4.4634 0.62679,0.1549 1.367538,0.3365 1.646115,0.4037 0.889546,0.2147 4.516541,-0.087 5.769303,-0.475 7.905912,-2.4558 14.645459,-12.30301 17.276267,-25.26936 0.587659,-2.89634 0.598715,-3.11345 0.189935,-3.33955 -1.468095,-0.81279 -2.57939,-2.72371 -3.972831,-6.86153 -1.232375,-3.65947 -2.616866,-6.30521 -3.355539,-6.41034 -0.410739,-0.0585 -0.666239,0.13466 -0.981334,0.74392 -0.356603,0.6896 -0.405248,1.37764 -0.308646,4.22608 0.11116,3.27751 0.09403,3.43125 -0.474839,4.10741 -0.343596,0.40828 -0.59355,1.03385 -0.59355,1.49578 0,0.43654 -0.344572,1.48067 -0.76766,2.31865 -0.57713,1.14332 -1.061769,1.71002 -1.946839,2.27132 -0.648836,0.41152 -1.306709,0.74402 -1.464096,0.74402 -0.348505,0 -1.203751,0.9118 -1.66194,1.77265 -0.185316,0.34835 -0.411287,1.37392 -0.49858,2.27924 -0.137464,1.42595 -0.323539,1.88337 -1.384952,3.41894 -0.67397,0.97498 -1.364036,2.17159 -1.535316,2.65907 -0.201825,0.57445 -0.494311,0.92098 -0.838881,0.97336 -0.816677,0.12407 -0.672078,-0.55804 0.56981,-2.60361 0.608912,-1.00308 1.262325,-2.24792 1.448259,-2.76205 0.312639,-0.86464 0.29723,-0.96904 -0.213675,-1.47994 -0.524729,-0.52476 -0.597179,-0.53448 -1.384949,-0.15842 -1.256575,0.60019 -3.688765,2.67365 -4.123199,3.5138 -0.423301,0.81856 -0.7545,0.94242 -0.973418,0.37193 -0.216678,-0.56455 1.600478,-2.68608 3.482155,-4.06773 1.541995,-1.13215 1.669857,-1.30136 1.669857,-2.17644 0,-0.52116 -0.113741,-1.24755 -0.253252,-1.61443 l -0.253243,-0.66481 -1.859791,1.02882 c -2.202718,1.21603 -2.974996,1.27435 -4.985818,0.37209 l -1.472006,-0.65688 -1.519491,0.93375 c -0.83724,0.51684 -1.702342,1.14115 -1.923099,1.38508 -0.363208,0.40126 -0.365055,0.47904 -0.0079,0.77552 0.217064,0.18021 0.957474,0.37697 1.646106,0.44321 1.165288,0.11166 1.270144,0.0756 1.503662,-0.53825 0.283488,-0.74565 1.02091,-0.67796 1.02091,0.0954 0,1.01351 -0.726927,1.33286 -2.635362,1.15537 -1.914702,-0.17822 -2.796953,-0.58704 -3.06272,-1.4245 -0.129993,-0.40955 0.125961,-0.83637 1.123786,-1.89147 0.708531,-0.74906 1.282067,-1.48265 1.282067,-1.63026 0,-0.33034 -0.848427,-0.34474 -2.025983,-0.0323 -0.4875,0.12961 -1.370702,0.36886 -1.962669,0.52242 l -1.076304,0.27687 0,1.76491 c 0,1.71163 0.01845,1.75682 0.63312,1.75682 0.348213,0 0.63312,0.11342 0.63312,0.25329 0,0.41405 -1.15971,0.28785 -1.748994,-0.18992 -0.490642,-0.39785 -0.542495,-0.64339 -0.474839,-2.45331 l 0.07122,-2.01804 1.519489,-0.45112 c 0.835721,-0.24915 1.946278,-0.64376 2.461256,-0.87058 0.933789,-0.41116 0.931231,-0.41656 0.925939,-1.96276 -0.0063,-1.90766 -0.571696,-3.26754 -2.002243,-4.81949 -1.514878,-1.6435 -2.263732,-1.5849 -5.405262,0.41944 -1.148977,0.73304 -1.573348,0.88282 -1.836049,0.66482 -0.187924,-0.15662 -0.348215,-0.38453 -0.348215,-0.5145 0,-0.54294 5.684924,-7.30461 6.141258,-7.30461 0.107927,0 0.189943,0.2203 0.189943,0.49065 0,0.94884 0.484772,0.76377 2.516651,-0.98924 1.127294,-0.97254 2.325464,-1.83737 2.667016,-1.92312 0.640921,-0.16076 1.839344,0.37029 6.085863,2.69078 1.859361,1.01603 2.171786,1.10361 3.798724,1.09213 2.717421,-0.0193 3.75975,-0.59673 7.083032,-3.97283 2.954259,-3.00122 4.629581,-4.11002 6.616098,-4.36853 l 0.989255,-0.13447 -1.400777,0.75184 c -2.211933,1.17992 -4.20067,3.33488 -4.518892,4.89085 -0.139175,0.6805 -0.333767,0.84003 -1.361212,1.13961 -0.919434,0.26809 -1.740349,0.86128 -3.569213,2.57996 -1.478512,1.38945 -2.664419,2.29771 -3.126028,2.39004 -1.053142,0.21062 -2.344792,-0.1406 -4.526815,-1.21875 -2.170496,-1.0724 -3.301458,-1.07296 -4.004484,0 -0.634571,0.96847 -0.492822,1.5081 0.704349,2.6116 1.901608,1.75283 3.286986,1.90946 8.032711,0.91016 1.724452,-0.36309 3.779119,-0.67651 4.558462,-0.6965 1.278167,-0.0327 1.534571,0.054 2.635362,0.91019 2.144385,1.66878 2.373276,1.31936 1.79648,-2.69081 -0.591365,-4.11136 -0.549888,-5.95789 0.158274,-7.00388 0.683311,-1.00931 2.493131,-2.01809 3.616695,-2.01809 1.242023,0 2.060871,0.84601 3.284317,3.39511 1.278088,2.66295 1.781057,3.22142 2.959836,3.2764 l 0.83888,0.0396 0.08706,-1.39287 c 0.211141,-3.54776 -1.076335,-11.16499 -2.754074,-16.27911 -3.543422,-10.80108 -9.850351,-17.92772 -17.086332,-19.31807 -0.82112,-0.1577 -1.622959,-0.23876 -2.421677,-0.24532 z m -3.81455,5.72973 c 0.367937,0.0113 0.52179,0.0776 0.340301,0.15031 -0.251755,0.10076 -0.234429,0.20813 0.08706,0.4432 0.392424,0.28694 0.393557,0.33453 -0.0079,0.73599 -0.237106,0.23713 -0.468153,0.62959 -0.514406,0.87054 -0.04627,0.24098 -0.09803,0.49226 -0.110797,0.5619 -0.01278,0.0697 -0.136833,-0.0442 -0.276992,-0.25326 -0.193212,-0.28802 -0.221397,-0.20837 -0.134528,0.31658 0.06297,0.38077 0.0056,0.75734 -0.126626,0.83887 -0.131919,0.0816 -0.172784,0.26488 -0.08706,0.40362 0.0968,0.15662 0.318168,0.11292 0.577725,-0.11091 0.229913,-0.19819 1.116988,-0.7686 1.978494,-1.26622 1.257168,-0.72618 1.623157,-0.83586 1.843963,-0.56982 0.320551,0.38625 -0.06171,1.65403 -0.498581,1.65403 -0.148553,0 -0.500435,0.21907 -0.783485,0.48276 -0.510527,0.47563 -0.500972,0.48784 1.527402,1.16334 1.77385,0.59075 2.041811,0.75679 2.041811,1.26626 0,0.5071 -0.120972,0.58359 -0.886371,0.56187 -0.487498,-0.0144 -0.886362,-0.10063 -0.886362,-0.18991 0,-0.26095 -1.27842,-0.76816 -1.535317,-0.60938 -0.128858,0.0796 -0.237422,0.0281 -0.237422,-0.11091 0,-0.1388 -0.199433,-0.2368 -0.443187,-0.22158 -0.243752,0.0144 -0.679689,-0.0536 -0.973418,-0.15033 -1.140922,-0.37546 -1.536379,1.4964 -0.419444,1.98642 0.313398,0.13754 0.56981,0.39392 0.56981,0.56981 0,0.17589 0.1674,0.31657 0.371955,0.31657 0.214275,0 0.315592,0.15248 0.237423,0.35612 -0.07494,0.19517 0.123091,0.53555 0.443186,0.75975 0.318903,0.22338 0.475759,0.40949 0.340299,0.41153 -0.135466,0.001 -0.09004,0.0994 0.102876,0.22158 0.283726,0.17966 0.25474,0.2781 -0.14245,0.49067 -0.594765,0.31831 -0.712508,0.23626 -1.938934,-1.28998 -1.416162,-1.76234 -2.082092,-1.55102 -1.701509,0.53024 0.184087,1.0067 0.16794,1.05256 -0.419446,1.05256 -0.57408,0 -0.616071,-0.0854 -0.577716,-1.20294 0.05861,-1.70844 0.03874,-1.83604 -0.332387,-1.83604 -0.505203,0 -1.479304,1.01044 -1.282073,1.32956 0.113378,0.18344 0.02043,0.21883 -0.261157,0.11066 -0.315957,-0.12119 -0.409932,-0.0445 -0.356136,0.27697 0.0846,0.50554 -0.621055,0.47175 -1.38495,-0.0634 -0.430391,-0.30146 -0.341472,-0.452 1.187103,-2.05764 1.123953,-1.18062 1.568903,-1.81831 1.392863,-1.99433 -0.14227,-0.14222 -1.22251,-0.26117 -2.397937,-0.26117 -1.552847,0 -2.168769,-0.0936 -2.263408,-0.3403 -0.24064,-0.62712 0.140578,-0.79932 1.780647,-0.79932 0.897143,0 1.630289,-0.11016 1.630289,-0.24533 0,-0.1352 -0.365548,-0.76294 -0.815143,-1.40078 -0.669065,-0.9492 -0.747529,-1.20174 -0.451097,-1.38494 0.199193,-0.12319 0.444571,-0.17354 0.546062,-0.11091 0.101497,0.0628 0.252157,1.7e-4 0.340308,-0.14241 0.1025,-0.1658 0.292597,-0.13483 0.522321,0.0949 0.197562,0.19758 0.462277,0.39594 0.585638,0.4432 0.123366,0.0474 0.30855,0.35768 0.411523,0.68853 0.140416,0.4511 0.105082,0.5517 -0.134547,0.40359 -0.203155,-0.12547 -0.252996,-0.0919 -0.142449,0.0871 0.09562,0.15481 0.331301,0.2188 0.530233,0.14239 0.258099,-0.099 0.333853,0.0113 0.261165,0.38778 -0.06646,0.34489 0.07874,0.62489 0.419438,0.80723 0.378307,0.20246 0.472889,0.20964 0.348221,0.008 -0.09467,-0.1532 -0.06607,-0.2849 0.0633,-0.2849 0.181742,0 0.714782,-1.42037 0.949677,-2.53247 0.26317,-1.24595 0.463909,-1.51453 1.092133,-1.49575 z m -4.131102,1.85189 c -0.07716,0.0183 -0.174009,0.14509 -0.245339,0.33239 -0.137427,0.36093 -0.115571,0.3907 0.134547,0.14239 0.173071,-0.17174 0.252079,-0.37312 0.174098,-0.4511 -0.01947,-0.0194 -0.03762,-0.0298 -0.0633,-0.0238 z"
       id="path3009"
       inkscape:connector-curvature="0"
       inkscape:export-filename="/home/lemaitre/Desktop/parc-morvan.png"
       inkscape:export-xdpi="200"
       inkscape:export-ydpi="200" />
    <path
       style="fill:#aa0000;fill-opacity:1;stroke:#000000;stroke-width:0.68332404;stroke-linecap:round;stroke-linejoin:round;stroke-miterlimit:4;stroke-opacity:0.05;stroke-dasharray:none"
       d="m 74.51632,969.69917 0,8.10395 0,8.10396 0.63312,0 0.63312,0 0,-3.41893 0,-3.41876 1.915186,0 c 1.053814,0 2.136884,-0.11705 2.405859,-0.26121 1.257398,-0.67292 2.065915,-3.99483 1.519481,-6.23625 -0.578008,-2.3708 -1.400682,-2.87276 -4.685086,-2.87276 l -2.42168,0 z m 1.26624,2.02594 1.756905,0 c 1.896752,0 2.41809,0.27507 2.706592,1.4245 0.25013,0.99676 -0.04697,3.1336 -0.498597,3.5851 -0.439008,0.43906 -3.428343,0.76346 -3.774966,0.41153 -0.104468,-0.10628 -0.189934,-1.37014 -0.189934,-2.8094 l 0,-2.61173 z m 9.362276,2.04178 c -0.404535,0 -0.808928,0.13142 -1.289997,0.38002 -1.297694,0.67095 -2.119077,3.65621 -1.00509,3.65621 0.33489,0 0.541594,-0.24285 0.656875,-0.76761 0.223435,-1.01729 0.763496,-1.51162 1.646113,-1.51162 0.88667,0 1.519489,0.79713 1.519489,1.92315 0,0.94006 -0.3155,1.24665 -1.519489,1.47977 -2.398719,0.46482 -3.158891,1.38742 -3.149775,3.81462 0.0063,1.71829 0.576497,3.06971 1.448253,3.41102 0.775294,0.30351 1.708112,0.0486 2.485023,-0.67274 l 0.656851,-0.60936 0.435256,0.6569 c 0.626481,0.95589 1.51617,0.77875 1.622381,-0.32459 0.05593,-0.58073 -0.01973,-0.80793 -0.25325,-0.75968 -0.261347,0.054 -0.359636,-0.88227 -0.459013,-4.36062 -0.136726,-4.78565 -0.273932,-5.30717 -1.51949,-5.95129 -0.470885,-0.24356 -0.869648,-0.36634 -1.274137,-0.36418 z m 8.262215,0 c -0.389041,0.0379 -0.92582,0.50172 -1.456172,1.36923 l -0.466941,0.75969 0,-0.9496 c 0,-0.78057 -0.09021,-0.94979 -0.506496,-0.94979 -0.492059,0 -0.506494,0.16922 -0.506494,5.95146 l 0,5.95128 0.617292,0 0.617293,0 0.07914,-4.40814 c 0.06987,-3.86683 0.133863,-4.46774 0.546077,-4.92248 0.258289,-0.28496 0.714085,-0.55103 1.012995,-0.59352 0.428039,-0.0611 0.563173,-0.28695 0.62519,-1.03673 0.06812,-0.82342 -0.172891,-1.20829 -0.56188,-1.1714 z m 4.091528,0.0396 c -0.0911,0 -0.183178,0.0216 -0.277001,0.0396 -1.88376,0.35338 -2.780436,2.33774 -2.809461,6.22834 -0.02726,3.64846 0.835769,5.74425 2.516649,6.14119 1.265282,0.29884 2.680556,-0.83492 3.149774,-2.52459 0.41548,-1.49615 0.34589,-1.84395 -0.340288,-1.84395 -0.489399,0 -0.634815,0.16201 -0.767666,0.87058 -0.09437,0.50298 -0.44179,1.10082 -0.823062,1.40074 -0.582167,0.45796 -0.730063,0.47849 -1.195001,0.17461 -0.97936,-0.64104 -1.285811,-1.65205 -1.274167,-4.21822 0.01166,-2.58545 0.395371,-3.78727 1.392864,-4.32102 0.760181,-0.40686 1.688384,0.28406 1.899366,1.40864 0.138093,0.73612 0.271249,0.88643 0.799321,0.88643 0.604403,0 0.632433,-0.0594 0.474843,-1.04466 -0.333729,-2.08679 -1.379591,-3.28734 -2.746171,-3.19734 z m -10.826353,6.31546 0,1.13953 c 0,1.42162 -0.58895,2.70156 -1.416621,3.0787 -0.348009,0.15842 -0.724843,0.29271 -0.830953,0.29271 -0.485204,0 -1.028675,-0.71126 -1.16338,-1.51955 -0.23278,-1.39731 0.272904,-2.05691 1.954781,-2.5561 l 1.456173,-0.43528 z m 13.042269,7.29675 c -0.323848,0 -0.379867,0.67939 -0.379867,4.63746 0,2.55367 0.06916,4.72273 0.158273,4.81183 0.471829,0.47183 0.601469,-0.53725 0.601469,-4.78012 0,-3.98239 -0.0559,-4.66917 -0.37988,-4.66917 z m -16.714371,0.75969 c -0.263019,0 -0.37987,0.25976 -0.37987,0.85473 0,0.53015 -0.145492,0.91504 -0.379877,1.00505 -0.208921,0.0792 -0.379867,0.30801 -0.379867,0.50658 0,0.19842 0.170947,0.42626 0.379867,0.50646 0.302437,0.1153 0.379877,0.66082 0.379877,2.66696 0,1.3858 0.06583,2.69992 0.15039,2.92023 0.22802,0.59427 1.115855,0.51307 1.115855,-0.10276 0,-0.27859 -0.113955,-0.50655 -0.25325,-0.50655 -0.151937,0 -0.253244,-1.01297 -0.253244,-2.53249 0,-1.51939 0.101297,-2.53236 0.253244,-2.53236 0.139299,0 0.25325,-0.22807 0.25325,-0.50656 0,-0.2785 -0.113955,-0.50659 -0.25325,-0.50659 -0.139282,0 -0.253244,-0.39874 -0.253244,-0.88623 0,-0.61909 -0.114569,-0.88642 -0.379876,-0.88642 z m 12.947311,1.71739 c -0.222731,0.018 -0.465066,0.0828 -0.720186,0.21368 -0.477801,0.2441 -0.772919,0.67206 -0.973412,1.41659 -0.386126,1.43405 -0.201587,4.00414 0.348214,4.84329 0.790061,1.20571 2.485177,0.76107 2.864873,-0.7518 0.235951,-0.94004 -0.109706,-1.05057 -0.751846,-0.24538 -0.737605,0.92512 -1.464761,0.8008 -1.78064,-0.30065 -0.130244,-0.45416 -0.156689,-0.90381 -0.0633,-0.99705 0.09339,-0.094 0.759492,-0.17282 1.487835,-0.18222 l 1.329549,-0.0176 -0.05544,-1.12362 c -0.0879,-1.87456 -0.720486,-2.90916 -1.685667,-2.85695 z m -4.843367,0.0558 c -0.318691,0 -0.379877,0.53881 -0.379877,3.37149 0,1.85701 0.07336,3.4526 0.166177,3.54546 0.456833,0.45667 0.593561,-0.0175 0.593561,-2.08935 0,-2.45254 0.272443,-3.56125 0.878463,-3.56125 0.243048,0 0.387773,-0.2346 0.387773,-0.63321 0,-0.73953 -0.609568,-0.85546 -0.997159,-0.18993 -0.245828,0.42224 -0.253853,0.42224 -0.261173,0 -0.004,-0.24375 -0.17885,-0.44321 -0.387774,-0.44321 z m -12.448714,0 c -0.289136,10e-4 -0.563807,0.0612 -0.767675,0.18993 -0.391798,0.24914 -0.888943,1.54537 -0.704357,1.84401 0.258368,0.41795 0.562214,0.24951 0.728089,-0.41155 0.132171,-0.52635 0.296907,-0.634 0.854709,-0.56971 0.564163,0.0652 0.704437,0.22044 0.767676,0.87048 0.07027,0.72247 -0.0024,0.80167 -0.791401,0.94968 -0.475957,0.0902 -1.061309,0.3796 -1.297892,0.64102 -0.500672,0.55316 -0.592601,2.22645 -0.166212,3.02324 0.349655,0.6533 1.565831,0.74291 2.057638,0.15126 0.297976,-0.35904 0.35303,-0.35904 0.554006,0 0.315673,0.5642 0.957578,0.48976 0.957578,-0.11153 0,-0.27846 -0.113955,-0.50642 -0.253243,-0.50642 -0.152225,0 -0.253251,-1.03152 -0.253251,-2.57999 0,-2.04148 -0.08731,-2.67184 -0.419429,-3.03898 -0.26682,-0.29487 -0.784381,-0.45347 -1.266239,-0.45114 z m -4.803814,0 c -0.306301,0.0181 -0.62828,0.15662 -0.918025,0.41945 -0.329448,0.29812 -0.459718,0.32818 -0.403625,0.0954 0.04515,-0.18758 -0.05538,-0.39513 -0.229494,-0.45905 -0.2438,-0.09 -0.31656,0.71109 -0.31656,3.47413 0,2.75719 0.07326,3.56263 0.31656,3.48217 0.214934,-0.0702 0.357236,-0.95445 0.443185,-2.74604 0.136329,-2.84103 0.268928,-3.26862 1.020893,-3.26862 0.615471,0 0.735537,0.5088 0.815156,3.52177 0.04326,1.63632 0.162702,2.42108 0.37987,2.49289 0.510549,0.16918 0.438249,-5.72692 -0.07914,-6.46557 -0.265204,-0.37875 -0.634998,-0.56562 -1.028823,-0.54617 z m 14.569668,0.0234 c -0.148678,0.0414 -0.24335,0.77609 -0.261148,2.02591 -0.03716,2.61859 -0.220527,3.49508 -0.807225,3.85425 -0.85768,0.52497 -1.187104,-0.39964 -1.187104,-3.33178 0,-1.99337 -0.07676,-2.60526 -0.31656,-2.52461 -0.469905,0.15841 -0.44164,6.03899 0.03168,6.6082 0.444902,0.53499 1.252082,0.53574 1.843947,0 0.43184,-0.39088 0.466941,-0.39464 0.466941,0.0175 0,0.24212 0.129884,0.40241 0.292802,0.34827 0.386381,-0.12958 0.355993,-6.86686 -0.03168,-6.99611 -0.0104,0 -0.02178,0 -0.03168,0 z m 7.510398,1.02886 c 0.07115,0 0.135592,0 0.197865,0.0238 0.47053,0.18046 1.006911,1.34795 0.78347,1.70938 -0.07882,0.12783 -0.5907,0.23748 -1.139615,0.23748 -0.809712,0 -0.997167,-0.0952 -0.997167,-0.48286 0,-0.63901 0.657334,-1.42766 1.155447,-1.48781 z m -16.682718,2.6434 c 0.208503,-0.02 0.236435,0.15126 0.284908,0.60141 0.04317,0.40078 -0.04532,0.95733 -0.197866,1.24256 -0.164197,0.30691 -0.532476,0.52221 -0.902173,0.52221 -0.546206,0 -0.625214,-0.11529 -0.625214,-0.90231 0,-0.77348 0.114531,-0.94279 0.823054,-1.24243 0.304986,-0.12971 0.492188,-0.20991 0.617291,-0.22144 z m -6.204575,4.6454 c -0.275153,0 -0.555091,0.19951 -0.625189,0.44326 -0.0701,0.24375 -0.216836,0.65518 -0.324491,0.9181 -0.324892,0.7929 0.448883,0.3498 0.981335,-0.56206 0.460684,-0.78865 0.459923,-0.7993 -0.03168,-0.7993 z m 26.733499,0.0627 c -0.233423,0.0777 -0.336467,1.25722 -0.387775,4.50296 -0.03825,2.4211 -0.01332,4.5536 0.05538,4.7325 0.06868,0.1782 0.244155,0.3246 0.387797,0.3246 0.170296,0 0.261146,-1.6844 0.261146,-4.8355 0,-3.75357 -0.0707,-4.80652 -0.316558,-4.72456 z m -18.479207,0.0627 c -0.146914,0.0238 -0.19784,0.21793 -0.19784,0.64102 0,0.4994 0.127508,0.75192 0.379876,0.75192 0.231825,0 0.379869,-0.23961 0.379869,-0.60956 0,-0.33323 -0.170929,-0.67147 -0.379869,-0.7518 -0.07128,-0.0263 -0.133052,-0.0401 -0.182036,-0.0326 z m 4.0599,2.37426 c -0.448454,0.033 -0.897818,0.319 -1.218761,0.8468 -0.970046,1.5952 -0.874035,4.6629 0.18204,5.8327 0.520245,0.5762 1.655051,0.5688 2.184264,-0.018 0.984755,-1.0882 1.01846,-4.5332 0.0633,-5.991 -0.315879,-0.4821 -0.762406,-0.7048 -1.210852,-0.6726 z m -8.008973,0 c -0.03771,-8e-4 -0.07375,0 -0.110797,0 -1.05875,0.1203 -1.8522,2.2536 -1.456173,4.7246 0.178526,1.1142 0.404489,1.64 0.902198,2.0735 0.623391,0.5431 0.707954,0.553 1.274159,0.182 0.567887,-0.3721 0.609372,-0.3618 0.609372,0.1028 0,0.2727 -0.109506,0.79 -0.245345,1.1474 -0.310033,0.8156 -1.410394,0.91 -1.654013,0.1422 -0.166033,-0.5232 -0.886371,-0.7163 -0.886371,-0.2377 0,0.3809 0.530734,1.3376 0.862615,1.5593 0.39152,0.2612 1.116513,0.2364 1.661965,-0.056 0.789522,-0.4227 1.020893,-1.7001 1.020893,-5.611 0,-3.1743 -0.05924,-3.7592 -0.379876,-3.7592 -0.20893,0 -0.379868,0.1203 -0.379868,0.2691 0,0.1494 -0.176816,0.091 -0.395704,-0.126 -0.278139,-0.2783 -0.558942,-0.4134 -0.823053,-0.4194 z m 18.534593,0.024 c -0.800517,-0.018 -1.614462,0.6163 -1.614462,1.5591 0,0.8897 0.328342,0.9296 0.712264,0.087 0.335684,-0.7367 1.183658,-0.8429 1.519489,-0.19 0.422924,0.8223 -0.114919,1.5678 -1.139619,1.575 -1.271279,0 -1.879126,2.7664 -0.838881,3.8065 0.630054,0.6301 0.784412,0.6281 1.582797,0 0.541316,-0.4257 0.661155,-0.4454 0.783501,-0.1259 0.214928,0.5602 0.925924,0.4634 0.925924,-0.1261 0,-0.2787 -0.113954,-0.5065 -0.253252,-0.5065 -0.152225,0 -0.253243,-1.0316 -0.253243,-2.5802 0,-2.0413 -0.08732,-2.6718 -0.419429,-3.0389 -0.281331,-0.3109 -0.641222,-0.4504 -1.005089,-0.459 z m -5.144106,0.017 c -0.311569,0.018 -0.60156,0.1565 -0.759745,0.4274 -0.143261,0.246 -0.256839,0.3024 -0.261172,0.1259 -0.004,-0.1746 -0.178849,-0.3167 -0.387773,-0.3167 -0.318914,0 -0.37987,0.5488 -0.37987,3.419 0,2.8701 0.06092,3.4188 0.37987,3.4188 0.312052,0 0.379875,-0.4513 0.379875,-2.5088 0,-2.0125 0.08528,-2.6128 0.443185,-3.0547 0.289762,-0.3579 0.596824,-0.4879 0.878465,-0.3799 0.365918,0.1404 0.446123,0.5972 0.506493,2.9679 0.04999,1.9654 0.165871,2.8385 0.387775,2.9123 0.510525,0.1692 0.438219,-5.7271 -0.07914,-6.4658 -0.265664,-0.3793 -0.707352,-0.5656 -1.107967,-0.5461 z m -21.755602,0 c -0.124255,0 -0.316536,0.1458 -0.593537,0.3957 -0.277101,0.2507 -0.459011,0.3016 -0.459011,0.1259 0,-0.1602 -0.170946,-0.2929 -0.379869,-0.2929 -0.318896,0 -0.379876,0.5488 -0.379876,3.419 0,2.87 0.06099,3.4188 0.379876,3.4188 0.309391,0 0.379869,-0.4247 0.379869,-2.2713 0,-2.3175 0.322002,-3.5535 0.925923,-3.5535 0.193032,0 0.340317,-0.2728 0.340317,-0.6331 0,-0.4171 -0.05395,-0.6189 -0.213692,-0.6093 z m 3.29223,0.055 c -0.815028,0.038 -1.605722,0.9865 -1.75689,2.8093 -0.157373,1.8971 0.107939,3.1232 0.846789,3.8621 0.974622,0.9747 2.231823,0.4192 2.540406,-1.1237 0.198877,-0.9943 -0.296251,-1.1305 -0.656877,-0.1821 -0.479116,1.2602 -2.025983,0.5954 -2.025983,-0.8705 0,-0.4717 0.151396,-0.5223 1.551144,-0.5223 l 1.551144,0 -0.166177,-1.3296 c -0.229162,-1.8055 -1.068455,-2.6808 -1.883554,-2.6432 z m 9.203994,0.1745 c -0.31892,0 -0.379876,0.5488 -0.379876,3.419 0,2.87 0.06099,3.4188 0.379876,3.4188 0.318889,0 0.379869,-0.5488 0.379869,-3.4188 0,-2.8702 -0.06099,-3.419 -0.379869,-3.419 z m -4.091527,0.7597 c 0.237693,-0.018 0.508015,0.1692 0.78347,0.5621 0.446553,0.6374 0.533975,2.845 0.150353,3.854 -0.304108,0.7998 -1.142655,0.8592 -1.543221,0.1115 -0.158129,-0.2956 -0.292828,-1.1924 -0.292828,-1.9945 0,-1.5746 0.379164,-2.5105 0.90222,-2.5324 z m -5.017503,0 c 0.404661,-0.018 0.763443,0.4427 0.973435,1.3218 0.162809,0.6815 0.138651,0.6964 -0.981334,0.6964 -1.275713,0 -1.480436,-0.4126 -0.743916,-1.464 0.251983,-0.3599 0.509076,-0.5439 0.751815,-0.5542 z m 13.081857,0.033 c 0.300859,0 0.550997,0.1674 0.720162,0.4828 0.378402,0.7068 0.383322,3.3032 0.0079,4.0046 -0.355683,0.6646 -1.179119,0.6992 -1.519482,0.063 -0.817107,-1.5266 -0.397073,-4.3913 0.664775,-4.5426 0.04515,0 0.08364,0 0.126625,0 z m 10.873834,2.7462 c 0.313954,0.017 0.347787,0.2908 0.245354,0.9181 -0.28329,1.7343 -1.796497,1.9813 -1.796497,0.2927 0,-0.5348 0.163243,-0.7807 0.648955,-0.9654 0.426748,-0.1621 0.713822,-0.2526 0.902188,-0.2454 z m -69.16836,3.7987 0,13.5487 0,13.5489 1.139613,0 1.139615,0 0.02385,-11.0797 0.02385,-11.0795 1.875624,9.2434 c 2.827871,13.9497 2.549145,12.8658 3.34761,12.9633 0.567307,0.069 1.529191,-0.018 1.574876,-0.1422 0.0071,-0.02 1.022486,-4.9891 2.255501,-11.048 l 2.239651,-11.0164 0.03168,11.1826 0.02376,11.1904 0.82306,-0.087 c 0.452677,-0.046 0.965507,-0.09 1.139613,-0.1028 0.249046,-0.017 0.31656,-2.9139 0.31656,-13.5725 l 0,-13.5487 -1.646106,0 c -1.494069,0 -1.65235,0.053 -1.772741,0.5697 -0.07271,0.3135 -1.095117,5.3435 -2.279234,11.1825 -1.883174,9.2862 -2.405853,11.5872 -2.405853,10.6287 0,-0.3088 -4.275082,-21.3571 -4.455599,-21.9376 -0.112514,-0.362 -0.434669,-0.4433 -1.764803,-0.4433 l -1.630288,0 z m 41.279421,0.7597 c -0.139282,0 -0.253243,0.3382 -0.253243,0.7518 0,0.5671 -0.09882,0.7126 -0.387774,0.6017 -0.210705,-0.082 -0.552613,0 -0.759744,0.1655 -0.504015,0.4182 -0.508855,2.8626 -0.0079,3.3635 0.212724,0.2127 0.636256,0.3175 1.012988,0.2454 0.64234,-0.1228 0.648954,-0.144 0.648954,-2.6276 0,-1.4997 -0.101511,-2.5008 -0.253251,-2.5008 z m 0.84681,1.1398 -0.04752,1.7806 c -0.02748,1.1232 0.07439,1.9023 0.269101,2.0972 0.170208,0.1692 0.467419,0.2468 0.656844,0.1746 0.189412,-0.074 0.441926,-0.1261 0.56981,-0.1261 0.127886,0 0.237426,-0.7978 0.237426,-1.7728 0,-2.1277 -0.454101,-2.3828 -0.561914,-0.3164 -0.05688,1.0918 -0.166266,1.4561 -0.451083,1.4561 -0.283684,0 -0.420996,-0.4167 -0.530251,-1.6461 l -0.142431,-1.6461 z m -1.709422,0.728 c 0.09028,-0.018 0.18259,0.074 0.324464,0.2454 0.175754,0.2116 0.281205,0.8143 0.237415,1.3454 -0.05346,0.6472 -0.214823,0.9923 -0.490666,1.0444 -0.725556,0.1369 -1.010587,-1.4964 -0.403625,-2.3265 0.146483,-0.2004 0.24208,-0.2996 0.332412,-0.3087 z m 15.400625,4.2024 c -1.116245,0 -2.464028,0.2802 -3.070634,0.7121 -1.003245,0.7145 -1.81242,2.4763 -2.010132,4.3685 l -0.158275,1.5116 0.918025,0 c 0.794791,0 0.93481,-0.094 1.068376,-0.6962 0.534813,-2.4157 1.102114,-3.1025 2.55621,-3.1025 1.952166,0 2.872797,1.0931 2.872797,3.411 0,1.4308 -0.558967,2.0462 -2.065538,2.2792 -4.434425,0.6855 -5.781607,2.171 -5.840558,6.4658 -0.04049,2.952 0.765185,4.8575 2.390047,5.6584 0.457111,0.2255 1.058886,0.4037 1.337454,0.4037 0.923902,2e-4 2.556946,-0.9209 3.36344,-1.8995 0.705727,-0.856 0.810473,-0.9087 0.949686,-0.4747 0.562513,1.7535 1.283483,2.3393 2.500822,2.0339 0.589537,-0.1476 0.656877,-0.2837 0.656877,-1.4087 0,-1.0971 -0.06726,-1.2502 -0.56981,-1.3216 l -0.569813,-0.079 -0.126625,-7.2176 c -0.139605,-7.9582 -0.219743,-8.4091 -1.756905,-9.7025 -0.447543,-0.3766 -1.096442,-0.7527 -1.440349,-0.8389 -0.282751,-0.073 -0.632969,-0.1028 -1.00509,-0.1028 z m -31.964637,0 c -2.624233,0 -4.335534,2.1059 -5.231171,6.442 -1.308454,6.3347 0.807962,13.5308 4.210254,14.3242 0.465445,0.1078 1.017749,0.1584 1.226678,0.1115 0.208931,-0.046 0.688713,-0.162 1.068407,-0.2532 0.87948,-0.2097 2.374371,-1.8524 2.991465,-3.2922 1.137134,-2.6528 1.539366,-6.8265 0.989264,-10.2171 -0.737588,-4.5459 -2.63312,-7.1123 -5.254897,-7.1146 z m 13.232204,0 c -1.035374,0 -1.588145,0.4302 -2.421679,1.9071 -0.428902,0.76 -0.793609,1.3848 -0.815156,1.3851 -0.02154,10e-5 -0.01782,-0.6268 0.0079,-1.3928 l 0.04746,-1.3931 -0.997161,0 -0.997169,0 0,9.9638 0,9.9637 0.696436,-0.063 c 0.383038,-0.034 0.838882,-0.074 1.012989,-0.086 0.244156,-0.018 0.31656,-1.4764 0.31656,-6.3708 0,-3.9024 0.107764,-6.7829 0.284905,-7.4864 0.38519,-1.5298 1.663716,-2.8809 2.72242,-2.8809 l 0.791397,0 0,-1.7727 c 0,-1.7341 -0.0135,-1.7727 -0.648945,-1.7727 z m 31.917182,0 c -1.205434,0 -1.911923,0.444 -2.920275,1.8359 l -0.743918,1.0209 0,-1.1711 0,-1.1794 -1.012994,0 -1.01299,0 0,9.8531 c 0,7.4567 0.0701,9.8789 0.300732,9.9558 0.260564,0.086 0.595057,0.078 1.51156,-0.04 0.09111,-0.018 0.210071,-3.0645 0.269104,-6.7903 0.116861,-7.3794 0.276594,-8.3206 1.646106,-9.75 1.169549,-1.2209 2.847649,-0.8563 3.561276,0.7756 0.333298,0.762 0.419532,2.2639 0.506493,8.3176 l 0.110822,7.3838 0.862613,0.095 c 0.476693,0.055 0.923906,0.05 0.989236,-0.017 0.23775,-0.2376 0.10427,-14.1321 -0.15035,-15.7011 -0.494516,-3.0478 -1.807658,-4.5882 -3.917418,-4.5902 z m -29.693335,0.5063 0.205738,0.9498 c 0.115847,0.5222 1.084512,4.9384 2.152609,9.8133 1.06813,4.8751 2.033532,8.9207 2.144711,8.9904 0.111197,0.07 0.616913,0.1259 1.123785,0.1259 0.71411,0 0.94682,-0.114 1.036722,-0.5063 0.06385,-0.2787 1.026058,-4.4951 2.136805,-9.3702 1.110724,-4.875 2.084943,-9.12 2.160506,-9.4336 0.127094,-0.5271 0.0457,-0.5698 -1.012987,-0.5698 -0.629452,0 -1.139612,0.043 -1.139612,0.095 0,0.3559 -3.083578,14.8156 -3.236819,15.1792 -0.12299,0.2916 -0.733002,-2.3997 -1.685692,-7.4076 l -1.495764,-7.8666 -1.195001,0 -1.195001,0 z m -15.709301,2.3664 c 0.385318,-0.024 0.794487,0.074 1.218756,0.2928 2.901082,1.5002 3.235425,11.8378 0.459012,14.1739 -1.648491,1.3872 -3.39917,0.4217 -4.281484,-2.3582 -0.711954,-2.2432 -0.774892,-6.564 -0.126627,-8.7767 0.619163,-2.113 1.574394,-3.2614 2.730343,-3.3318 z m 34.394248,7.5657 0,1.8046 c 0,0.9936 -0.122953,2.2437 -0.269071,2.7697 -0.310161,1.117 -1.547204,2.6213 -2.342556,2.849 -1.1137,0.3194 -1.321164,0.3296 -1.891427,0.1028 -1.263023,-0.5016 -1.764003,-3.6878 -0.823062,-5.2311 0.354805,-0.5819 0.79224,-0.8908 1.574876,-1.1 0.59863,-0.1601 1.69046,-0.4946 2.421687,-0.744 l 1.329553,-0.451 z"
       id="rect3028"
       inkscape:connector-curvature="0"
       inkscape:export-filename="/home/lemaitre/Desktop/parc-morvan.png"
       inkscape:export-xdpi="200"
       inkscape:export-ydpi="200" />
    <path
       style="fill:#e5e500;fill-opacity:1;stroke:#000000;stroke-width:2.88029432;stroke-miterlimit:4;stroke-opacity:1;stroke-dasharray:none"
       d="m 222.68504,938.09727 c 0,2.52025 0,5.04051 0,7.56077 -2.5197,0.23159 -8.27463,2.23428 -7.20969,-2.23444 1.04954,-3.82813 -1.59051,-5.65959 -5.07818,-4.25363 -5.18733,0.0957 -0.59649,5.38069 -2.28736,8.0554 -2.09793,2.09528 -7.46454,2.37818 -6.65114,-1.86797 0.2824,-5.17147 -6.65372,-3.37368 -7.35862,0.0136 1.44104,4.88672 2.07927,10.03865 3.19499,15.0318 2.56812,2.85275 8.41526,2.39775 12.35359,3.46903 14.53302,2.03677 29.60464,2.20225 43.8687,-1.59107 3.51913,-2.13611 2.61727,-7.00876 3.74676,-10.44711 0.61,-3.52547 2.73352,-9.30787 -2.83686,-9.55839 -4.53049,-2.03231 -1.16383,7.52159 -5.89729,6.47088 -3.64337,-0.18251 -5.1496,-2.45602 -3.89339,-5.96529 1.65529,-4.02964 -4.42071,-4.49993 -6.72766,-3.49582 -1.30802,2.46109 0.78219,8.43562 -4.01569,6.92818 -3.83649,0.62631 -4.89058,-2.25005 -3.77049,-5.44489 1.49389,-4.75761 -5.0503,-1.8925 -7.43767,-2.67103 z"
       id="path3927"
       inkscape:connector-curvature="0"
       inkscape:export-filename="/home/lemaitre/Desktop/mairie-luzy.png"
       inkscape:export-xdpi="200"
       inkscape:export-ydpi="200" />
    <path
       style="fill:#000000"
       d="m 199.41611,971.24401 c 0.93111,12.21511 -1.56379,24.91747 2.77115,36.70179 4.35737,9.9054 12.81806,17.7147 22.65919,22.042 6.18058,0.9959 11.68386,-2.9324 15.97823,-6.9024 3.79219,-3.3932 7.60328,-6.9244 9.91588,-11.5452 4.00596,-7.3206 5.17203,-15.94317 4.10363,-24.15492 -0.14463,-5.05861 1.49476,-10.18831 0.15258,-15.1747 -0.32656,-1.95341 -2.04388,-2.1234 -3.62198,-1.94167 -17.32456,0 -34.64912,0 -51.97368,0 l 0.007,0.48757 0.007,0.48753 2e-5,0 z m 14.55149,1.42515 c 2.96688,-0.27102 6.5061,-0.78886 9.02124,1.15427 1.21959,2.97675 -3.0703,4.32656 -3.92424,6.8451 -4.99096,7.22656 -9.94744,14.47851 -15.10492,21.58807 -2.65784,-8.63529 -0.98107,-17.73879 -1.6127,-26.58866 -0.0453,-3.23226 3.76409,-3.50263 6.15553,-3.03052 1.83333,0.316 3.6323,-0.0262 5.46509,0.0317 z m 38.44892,0 c -0.34706,9.72011 0.0397,19.48089 -1.0651,29.16294 -6.03559,-5.3628 -8.93367,-13.2046 -14.35142,-19.09538 -1.93622,-2.58434 -4.47605,-5.15173 -4.82865,-8.50007 0.73895,-3.1297 4.96808,-1.80637 7.24382,-1.62402 4.32924,0.28539 8.66818,0.0339 13.00135,0.0565 z m -24.81253,2.16022 c 6.32155,9.0819 12.65307,18.15689 18.94943,27.25632 2.83112,1.2625 3.23413,5.5883 0.53253,7.1892 -2.99999,1.6263 -4.06921,-2.4777 -4.84483,-4.479 -4.31195,-6.42309 -8.88408,-12.66517 -13.36701,-18.96857 -4.54486,0.12715 -6.74094,4.72144 -8.5898,8.19758 -1.33708,3.41228 -4.53886,5.41692 -6.25801,8.55339 -1.84355,2.5694 -2.76453,6.5768 -6.04767,7.6384 -3.41288,-1.2429 -1.39138,-6.4647 0.29001,-8.6522 2.18133,-2.87152 4.46167,-5.663 6.37504,-8.72375 4.24297,-6.05673 8.11712,-12.39889 12.96031,-18.01137 z m 0.075,14.74651 c 5.49866,7.93158 11.08528,15.80351 16.4319,23.83931 -1.1144,5.4891 -6.81063,7.7559 -10.75131,10.9197 -2.21185,2.4141 -5.83774,3.5186 -8.90195,2.0855 -4.55827,-1.8686 -7.74555,-5.839 -11.87655,-8.3683 -3.20313,-2.3893 -1.01199,-6.5565 1.00553,-8.9189 4.2851,-5.7112 7.95836,-11.85802 12.18652,-17.61762 0.44976,-0.18067 1.57684,-3.09368 1.90586,-1.93969 z"
       id="path3944-0-0"
       inkscape:connector-curvature="0"
       inkscape:export-filename="/home/lemaitre/Desktop/mairie-luzy.png"
       inkscape:export-xdpi="200"
       inkscape:export-ydpi="200" />
    <path
       id="path4081-6"
       style="fill:#aa0000"
       d="m 214.3024,971.45026 c -4.18043,0 -8.36086,0 -12.54128,0 0.28224,10.19492 0.0768,20.41704 1.04636,30.58174 6.36136,0.1586 6.47202,-8.47204 10.81964,-11.65478 4.27737,-5.9963 8.42707,-12.08236 12.69308,-18.08666 -3.75987,-1.95586 -8.05124,-0.19958 -12.0178,-0.8403 z m 26.34293,0.1723 c 4.18043,0 8.36086,0 12.54128,0 -0.28254,10.19491 -0.0764,20.41707 -1.04636,30.58174 -2.69433,1.8791 -4.4425,-2.0104 -5.45574,-3.92 -1.02332,-2.54788 -3.15504,-4.26231 -4.56377,-6.54821 -4.4852,-6.43317 -8.97922,-12.86022 -13.49321,-19.27324 3.39077,-1.8734 7.38834,-0.3352 11.04,-0.7941 0.32249,-0.0659 0.65172,-0.0351 0.9778,-0.0462 z m -13.62855,16.13386 c 5.68477,8.44732 11.61101,16.72888 17.31513,25.16298 1.30033,2.811 -1.30706,5.2566 -3.38904,6.7351 -2.65904,1.9888 -4.9212,4.4542 -7.8139,6.143 -2.0937,1.1795 -4.32672,2.9098 -6.6454,3.1723 -6.77644,-3.0866 -12.88328,-7.6774 -17.62518,-13.4279 0.92411,-4.9223 5.33473,-8.0091 7.47608,-12.3334 3.43864,-5.23366 6.98479,-10.39763 10.68231,-15.45208 z"
       inkscape:connector-curvature="0"
       inkscape:export-filename="/home/lemaitre/Desktop/mairie-luzy.png"
       inkscape:export-xdpi="200"
       inkscape:export-ydpi="200" />
    <path
       style="fill:#e5e500;fill-opacity:1"
       d="m 209.06863,976.16106 c 0.31712,2.0996 -1.51273,1.84551 -2.76008,2.34996 -1.39671,1.20255 0.6145,1.62898 1.0961,2.29531 0.1452,1.17416 -0.0855,4.00828 1.80925,2.93745 0.47442,-1.16428 1.65096,0.0613 2.20542,0.47818 2.10134,0.2318 0.98449,-2.38296 1.57153,-3.48394 1.31584,-1.27024 5.08072,-3.23681 1.24137,-2.6642 -1.34296,0.0802 -3.26038,0.4276 -3.35911,-1.56793 -1.09931,-2.03754 -1.15532,-4.87001 -1.80448,-0.34483 z"
       id="path3979"
       inkscape:connector-curvature="0"
       inkscape:export-filename="/home/lemaitre/Desktop/mairie-luzy.png"
       inkscape:export-xdpi="200"
       inkscape:export-ydpi="200" />
    <path
       style="fill:#000000"
       d="m 210.07996,973.79234 c -0.3436,0 -0.89658,0.86408 -1.24512,1.92019 -0.60987,1.84792 -0.72532,1.9202 -2.73028,1.9202 -2.35189,0 -2.84565,1.00304 -0.9901,1.9802 1.55336,0.81803 1.79207,1.39518 1.47015,3.42035 -0.25067,1.57689 -0.1532,1.80018 0.69007,1.80018 0.52947,0 1.23147,-0.32403 1.56016,-0.72007 0.80442,-0.96927 1.5584,-0.90644 2.88029,0.24002 1.14575,0.99371 2.40024,1.27663 2.40024,0.54006 0,-0.23178 -0.31436,-1.15604 -0.69007,-2.05521 -0.67537,-1.61641 -0.66454,-1.64706 0.9601,-2.76028 2.3215,-1.59071 2.15116,-2.44525 -0.49505,-2.44525 -2.09246,0 -2.1501,-0.0442 -2.65527,-1.9202 -0.28438,-1.05611 -0.81152,-1.92019 -1.15512,-1.92019 z m -0.18002,2.16022 0.46505,1.32013 c 0.3698,1.05927 0.76044,1.32232 1.9802,1.33514 l 1.53016,0.015 -1.14012,0.94509 c -0.85139,0.70929 -1.0504,1.2475 -0.82508,2.14522 0.27946,1.11346 0.21439,1.16236 -0.85509,0.67507 -0.84751,-0.38615 -1.43278,-0.38445 -2.23523,0.045 -1.02526,0.54871 -1.06876,0.51989 -0.76507,-0.69007 0.24888,-0.99165 0.0836,-1.49755 -0.76508,-2.20523 l -1.09511,-0.91509 1.50015,-0.015 c 1.23397,-0.0131 1.57279,-0.25497 1.86019,-1.33513 l 0.34503,-1.32014 z"
       id="path3977"
       inkscape:connector-curvature="0"
       inkscape:export-filename="/home/lemaitre/Desktop/mairie-luzy.png"
       inkscape:export-xdpi="200"
       inkscape:export-ydpi="200" />
    <path
       style="fill:#e5e500;fill-opacity:1"
       d="m 243.90658,977.3279 c 0.31712,2.0996 -1.51273,1.84551 -2.76008,2.34996 -1.39671,1.20255 0.61451,1.62898 1.09611,2.29531 0.14519,1.17416 -0.0856,4.00828 1.80924,2.93745 0.47442,-1.16428 1.65096,0.0612 2.20542,0.47818 2.10134,0.2318 0.98449,-2.38296 1.57153,-3.48394 1.31584,-1.27024 5.08073,-3.23681 1.24137,-2.6642 -1.34296,0.0802 -3.26038,0.4276 -3.35911,-1.56793 -1.09931,-2.03754 -1.15531,-4.87001 -1.80448,-0.34483 z"
       id="path3979-8"
       inkscape:connector-curvature="0"
       inkscape:export-filename="/home/lemaitre/Desktop/mairie-luzy.png"
       inkscape:export-xdpi="200"
       inkscape:export-ydpi="200" />
    <path
       style="fill:#000000"
       d="m 244.91791,974.95918 c -0.3436,0 -0.89657,0.86408 -1.24512,1.92019 -0.60987,1.84792 -0.72532,1.9202 -2.73028,1.9202 -2.35189,0 -2.84565,1.00304 -0.9901,1.9802 1.55336,0.81803 1.79207,1.39518 1.47015,3.42035 -0.25067,1.57689 -0.1532,1.80018 0.69007,1.80018 0.52947,0 1.23147,-0.32403 1.56016,-0.72007 0.80442,-0.96927 1.5584,-0.90644 2.88029,0.24003 1.14575,0.9937 2.40025,1.27662 2.40025,0.54005 0,-0.23178 -0.31437,-1.15604 -0.69007,-2.05521 -0.67538,-1.61641 -0.66455,-1.64706 0.96009,-2.76028 2.3215,-1.59071 2.15116,-2.44525 -0.49505,-2.44525 -2.09246,0 -2.1501,-0.0442 -2.65527,-1.9202 -0.28438,-1.05611 -0.81152,-1.92019 -1.15512,-1.92019 z m -0.18001,2.16022 0.46504,1.32013 c 0.3698,1.05927 0.76044,1.32232 1.98021,1.33514 l 1.53015,0.015 -1.14011,0.94509 c -0.8514,0.70929 -1.0504,1.2475 -0.82509,2.14522 0.27946,1.11346 0.21439,1.16236 -0.85509,0.67507 -0.84751,-0.38615 -1.43277,-0.38445 -2.23522,0.045 -1.02527,0.54871 -1.06877,0.51989 -0.76508,-0.69007 0.24888,-0.99165 0.0836,-1.49755 -0.76508,-2.20522 l -1.09511,-0.9151 1.50015,-0.015 c 1.23398,-0.0131 1.57279,-0.25497 1.86019,-1.33513 l 0.34504,-1.32014 z"
       id="path3977-4"
       inkscape:connector-curvature="0"
       inkscape:export-filename="/home/lemaitre/Desktop/mairie-luzy.png"
       inkscape:export-xdpi="200"
       inkscape:export-ydpi="200" />
    <path
       style="fill:#e5e500;fill-opacity:1"
       d="m 225.44924,1006.904 c 0.31712,2.0996 -1.51273,1.8455 -2.76008,2.35 -1.39672,1.2025 0.6145,1.6289 1.0961,2.2953 0.1452,1.1741 -0.0856,4.0083 1.80924,2.9374 0.47443,-1.1643 1.65097,0.061 2.20543,0.4782 2.10134,0.2318 0.98449,-2.383 1.57152,-3.4839 1.31585,-1.2703 5.08073,-3.2368 1.24138,-2.6642 -1.34296,0.08 -3.26039,0.4276 -3.35911,-1.568 -1.09931,-2.0375 -1.15532,-4.87 -1.80448,-0.3448 z"
       id="path3979-0"
       inkscape:connector-curvature="0"
       inkscape:export-filename="/home/lemaitre/Desktop/mairie-luzy.png"
       inkscape:export-xdpi="200"
       inkscape:export-ydpi="200" />
    <path
       style="fill:#000000"
       d="m 226.46057,1004.5353 c -0.3436,0 -0.89658,0.8641 -1.24513,1.9202 -0.60987,1.8479 -0.72531,1.9202 -2.73028,1.9202 -2.35188,0 -2.84564,1.003 -0.9901,1.9802 1.55337,0.818 1.79208,1.3952 1.47015,3.4203 -0.25066,1.5769 -0.15319,1.8002 0.69007,1.8002 0.52947,0 1.23148,-0.324 1.56016,-0.7201 0.80443,-0.9692 1.55841,-0.9064 2.8803,0.2401 1.14575,0.9937 2.40024,1.2766 2.40024,0.54 0,-0.2318 -0.31437,-1.156 -0.69007,-2.0552 -0.67537,-1.6164 -0.66454,-1.647 0.9601,-2.7603 2.3215,-1.5907 2.15115,-2.4452 -0.49505,-2.4452 -2.09246,0 -2.15011,-0.044 -2.65527,-1.9202 -0.28438,-1.0561 -0.81152,-1.9202 -1.15512,-1.9202 z m -0.18002,2.1602 0.46505,1.3201 c 0.3698,1.0593 0.76044,1.3224 1.9802,1.3352 l 1.53016,0.015 -1.14012,0.9451 c -0.85139,0.7093 -1.0504,1.2475 -0.82508,2.1452 0.27946,1.1135 0.21439,1.1623 -0.85509,0.6751 -0.84751,-0.3862 -1.43278,-0.3845 -2.23523,0.045 -1.02526,0.5487 -1.06876,0.5199 -0.76508,-0.6901 0.24889,-0.9917 0.0836,-1.4976 -0.76507,-2.2052 l -1.09512,-0.9151 1.50016,-0.015 c 1.23397,-0.013 1.57279,-0.255 1.86019,-1.3352 l 0.34503,-1.3201 z"
       id="path3977-0"
       inkscape:connector-curvature="0"
       inkscape:export-filename="/home/lemaitre/Desktop/mairie-luzy.png"
       inkscape:export-xdpi="200"
       inkscape:export-ydpi="200" />
    <text
       xml:space="preserve"
       style="font-size:10.87919712px;font-style:normal;font-variant:normal;font-weight:normal;font-stretch:normal;line-height:125%;letter-spacing:0px;word-spacing:0px;fill:#000000;fill-opacity:1;stroke:none;font-family:Ubuntu;-inkscape-font-specification:Ubuntu"
       x="190.33183"
       y="1041.7869"
       id="text4132"
       sodipodi:linespacing="125%"
       inkscape:export-filename="/home/lemaitre/Desktop/mairie-luzy.png"
       inkscape:export-xdpi="200"
       inkscape:export-ydpi="200"><tspan
         sodipodi:role="line"
         id="tspan4134"
         x="190.33183"
         y="1041.7869">Mairie de Luzy</tspan></text>
    <path
       style="fill:#000000"
       d="m 543.90573,1012.6063 c 0.49579,-1.5771 0.51687,1.7828 0,0 z"
       id="path4257"
       inkscape:connector-curvature="0"
       inkscape:export-filename="/home/lemaitre/Desktop/ascfours.png"
       inkscape:export-xdpi="200"
       inkscape:export-ydpi="200" />
    <path
       id="path4221"
       style="fill:#00004d;fill-opacity:1"
       d="m 384.68179,967.85418 c -5.07306,-5.9152 -7.17835,-14.0955 -6.12545,-21.76571 1.50111,4.54169 1.92896,9.63544 5.32377,13.34355 3.06438,2.72165 8.66665,8.62005 0.80168,8.42216 z m 23.31095,0.0226 c -2.58918,-4.21133 5.37704,-6.91197 6.57195,-11.05045 1.74642,-2.17443 5.41715,-8.54719 3.90927,-1.98909 -1.59875,4.70297 -5.06287,13.56222 -9.70039,14.01161 l -0.78083,-0.97207 0,0 z m 142.49993,21.09841 c -17.31773,-4.95911 -35.36425,-9.91337 -49.52713,-21.61703 -4.20135,-4.88344 -10.02919,-3.12046 -14.1806,0.59659 -8.38945,5.15622 -17.48016,9.39223 -24.57309,16.38019 -3.47646,4.27336 -9.08942,5.78098 -12.74776,0.76195 -3.6967,-3.24413 -6.95907,-8.26214 -12.06921,-8.82703 -6.27067,1.25807 -10.00335,7.15905 -15.34175,10.21886 -2.37243,3.57162 -7.15406,0.36335 -3.32096,-2.58936 5.80025,-5.99193 13.50567,-9.77209 21.36071,-12.30679 6.14502,2.41711 10.16371,8.45417 16.58388,10.3022 5.60777,-3.14564 9.4094,-8.74145 15.22816,-11.58635 7.60046,-5.15538 15.63268,-9.90243 24.47456,-12.57671 8.60935,2.4468 14.70357,9.6398 22.89698,12.99598 12.08571,6.32614 24.90319,11.05921 37.41295,16.4485 2.1703,3.76403 -4.61361,1.8704 -6.19674,1.799 z m -146.63222,30.3636 c 1.56497,-6.5491 0.67251,-14.0932 -5.0796,-18.3787 -2.54912,-2.87582 -9.53627,-8.8027 -7.64742,-10.97335 6.96345,-0.96184 10.26821,6.19689 14.64536,10.25055 5.22287,5.5967 1.81338,13.7926 -1.58104,19.3938 l -0.30105,0.2482 -0.0363,-0.5405 0,0 z m 52.8137,3.7195 c 0.81502,-3.5004 -0.48091,-7.3701 0.8787,-10.3436 0.7613,-2.1609 1.22904,-5.7262 -0.6916,-6.5501 0.9102,-1.7657 3.22216,-4.0193 4.27256,-1.4321 1.58072,-0.8593 6.94583,-0.5273 3.55539,1.4033 -3.40076,-0.3853 -5.53236,1.0673 -5.0228,4.6929 -1.51975,3.1961 1.37378,2.2785 3.31668,2.2363 3.69369,-0.2684 -1.01853,3.2226 -2.92808,1.9438 -2.57475,2.0821 0.34486,6.8444 -2.45564,9.1433 -0.98713,0.9403 -0.9331,-0.4483 -0.92521,-1.0938 z m -72.10577,-26.31536 c -6.66974,0.17148 -9.32455,7.93326 -8.45095,13.59056 0.57611,7.0074 5.86131,14.6987 13.44237,14.7597 6.41861,-0.3906 9.66168,-7.2944 8.61764,-13.0487 -0.62141,-7.1706 -5.88565,-14.91617 -13.60906,-15.30156 z m -0.71208,1.11086 c 6.90573,1.22598 9.06515,9.2534 9.80636,15.2558 1.21799,4.6365 -2.47683,12.0528 -7.8896,8.3547 -4.98332,-3.7045 -7.06078,-10.4817 -7.09413,-16.4835 0.19455,-3.0486 1.26051,-7.39692 5.17737,-7.127 z m 116.90281,27.1984 c -2.00231,-2.821 -0.51778,-6.5373 0.0586,-9.5966 -0.12002,-3.705 -3.63088,0.6571 -3.34054,2.5938 -0.22741,1.9139 -4.97138,7.8708 -3.60054,3.4872 2.55293,-2.6655 3.5397,-6.5595 2.99935,-10.1655 0.0997,-3.6887 3.4288,-2.9595 2.5213,0.4043 1.31629,0.2924 5.21269,-1.545 3.46473,1.8382 -0.37412,3.0112 -2.62431,7.2976 -0.34548,9.714 1.87791,-1.1554 4.34358,-0.3185 1.61461,1.2925 -0.98581,0.5905 -2.28556,1.075 -3.37204,0.4321 z m 11.09584,0.1978 c -3.05988,0.01 -1.25325,-4.9721 0.86269,-2.0787 5.29102,1.7668 0.38349,-10.8058 -1.31677,-4.8111 -0.72026,1.7218 -5.50182,7.5008 -3.92421,2.9701 2.55629,-2.2939 4.48105,-5.3587 4.36429,-8.9084 -0.59275,-2.2217 3.05967,-5.4478 2.9675,-1.9036 -1.48976,3.2955 1.03177,6.3111 1.89399,9.3308 0.68363,2.8208 -1.27302,7.4013 -4.84749,5.4009 z m -29.1806,0.085 c -2.41825,-3.0417 -0.63546,-7.1231 -0.50974,-10.5752 -1.04718,-2.446 3.78015,-5.6766 2.43431,-1.6516 -0.49977,3.217 -2.63659,7.235 -0.55934,10.2165 3.35266,0.2709 3.86409,-4.8911 3.98448,-7.5522 -0.13121,-1.6053 0.94629,-6.8976 2.49279,-3.6337 -0.40239,3.5106 -1.35138,7.0814 -0.74647,10.6274 1.3007,0.2272 3.73609,-0.4443 1.72482,1.8041 -2.29581,2.4675 -3.89351,-1.6752 -3.96815,-2.215 -0.91412,1.7014 -2.54413,4.415 -4.8527,2.9797 z m -11.77136,0.1696 c -3.7772,-2.6233 -2.69013,-8.088 -0.71211,-11.5192 -0.0275,-2.5217 5.92976,-5.4607 4.82903,-1.9389 -3.94506,0.5852 -4.43664,5.5382 -4.45402,8.8381 0.62772,5.6853 6.22068,-0.049 4.78381,-3.4432 -0.81506,-1.7859 0.0659,-7.7358 2.26874,-4.6412 -0.10367,4.5107 -0.34741,10.6767 -5.00306,12.867 l -0.87139,0.029 -0.841,-0.1913 z"
       inkscape:connector-curvature="0"
       inkscape:export-filename="/home/lemaitre/Desktop/ascfours.png"
       inkscape:export-xdpi="200"
       inkscape:export-ydpi="200" />
    <path
       id="path4147"
       style="fill:#aa0000"
       d="m 476.00737,939.16727 c -1.22819,-1.89663 -1.5589,-3.43881 -1.80445,-8.41444 l -0.12458,-2.52448 1.57939,0 c 0.86867,0 1.58504,0.0207 1.59194,0.0459 0.0404,0.14764 0.36514,7.88384 0.35647,8.4914 -0.0162,1.13522 -0.69391,3.03471 -1.07999,3.02709 -0.0634,-0.001 -0.29682,-0.28271 -0.51878,-0.62547 z m 13.23595,1.31624 c -1.09007,-1.18157 -1.07737,-1.11521 -0.43773,-2.28563 0.32012,-0.58576 0.71133,-1.20961 0.86936,-1.38633 0.15803,-0.17671 0.21881,-0.32129 0.13507,-0.32129 -0.0837,0 0.0112,-0.1859 0.21108,-0.4131 0.19983,-0.2272 0.5772,-0.74913 0.8386,-1.15984 0.6732,-1.05773 2.35747,-3.05241 3.98153,-4.71529 1.64746,-1.68686 1.99414,-1.77045 3.01339,-0.72665 0.37392,0.38293 0.67985,0.8349 0.67985,1.00438 0,0.29766 -2.12291,3.28529 -2.42269,3.40953 -0.0812,0.0337 -0.14768,0.1345 -0.14768,0.22409 0,0.1274 -1.57534,2.32446 -2.42832,3.38666 -0.33428,0.41628 -1.90965,2.60671 -2.21176,3.07527 -0.4753,0.73719 -1.35157,0.69853 -2.0807,-0.0918 z m -24.94363,2.95178 c -0.4005,-0.62152 -1.97026,-2.41956 -3.48836,-3.99565 -1.51811,-1.57609 -2.86222,-2.98774 -2.98692,-3.13699 -1.15406,-1.38135 -1.83351,-2.5487 -2.42553,-4.16722 l -0.41767,-1.14187 0.9726,-1.22227 0.97259,-1.22228 0.65417,0.72761 c 0.35979,0.40018 0.85874,0.99723 1.10877,1.32678 0.25003,0.32955 0.70444,0.87127 1.00979,1.20384 0.30535,0.33257 0.77571,0.882 1.04523,1.22096 5.31443,6.68345 5.56475,7.04026 5.58426,7.9602 0.009,0.40392 0.0778,1.16463 0.15385,1.69047 0.12635,0.87358 0.098,0.99637 -0.32852,1.42289 -0.71259,0.71258 -1.04193,0.5942 -1.85426,-0.66647 z m 31.93991,7.52639 c -0.13039,-0.52793 -0.16926,-1.14724 -0.12554,-2.00034 0.0335,-0.65356 0.0393,-0.65785 1.45652,-1.07746 0.78259,-0.2317 2.04253,-0.61381 2.79987,-0.84913 2.60654,-0.80987 4.93714,-1.36984 9.11032,-2.1889 0.51089,-0.10027 0.61408,-0.0429 0.9517,0.52936 l 0.3787,0.64183 -1.18753,0.65274 c -0.65314,0.35901 -1.23689,0.65275 -1.29723,0.65275 -0.0603,0 -0.40862,0.18589 -0.77397,0.41308 -1.07541,0.66877 -4.39628,2.14605 -6.0804,2.70486 -0.85832,0.2848 -2.13892,0.57075 -2.84577,0.63544 -0.70685,0.0647 -1.50933,0.16135 -1.78329,0.2148 -0.40868,0.0797 -0.51701,0.0207 -0.60338,-0.32903 z m -38.46386,1.45956 c -1.20772,-0.52832 -3.4992,-1.70073 -4.40635,-2.25447 -0.55538,-0.33902 -1.38157,-0.81479 -1.83598,-1.05729 -0.4544,-0.24249 -0.99142,-0.52942 -1.19338,-0.63761 -0.96556,-0.5173 -2.65811,-1.12227 -3.45316,-1.23427 -0.59553,-0.0839 -0.91198,-0.22474 -0.97252,-0.43282 -0.11938,-0.41033 -1.64114,-3.74093 -2.29665,-5.02656 -0.43116,-0.84562 -0.43498,-1.06521 -0.0186,-1.06521 0.49735,0 2.22225,0.64478 3.25251,1.21581 0.96393,0.53426 4.06109,2.59873 4.89322,3.26166 0.26778,0.21333 0.75993,0.59442 1.09367,0.84687 0.33375,0.25245 1.60179,1.28596 2.81789,2.2967 1.2161,1.01074 2.60353,2.11945 3.08318,2.46379 0.93474,0.67107 1.07039,1.06187 0.53633,1.54518 -0.38167,0.34541 -0.83534,0.36906 -1.50022,0.0782 z m -58.20239,10.27761 c -6.25922,-4.80918 7.7811,-8.97998 3.79014,-0.88292 -0.75545,1.26659 -2.55765,1.86482 -3.79014,0.88292 z m 37.91483,3.41741 c -0.20196,-0.0499 -0.63571,-0.17432 -0.96389,-0.27655 l -0.5967,-0.18588 0,-1.33329 0,-1.3333 1.33109,-0.2341 c 0.7321,-0.12876 1.95072,-0.40179 2.70807,-0.60675 0.75734,-0.20496 1.54222,-0.39391 1.74418,-0.4199 0.20196,-0.026 0.98683,-0.21802 1.74418,-0.42673 4.35194,-1.19933 7.90466,-1.69422 10.14921,-1.41379 l 0.97736,0.12212 0.19201,1.23063 c 0.1056,0.67684 0.17181,1.25656 0.14712,1.28825 -0.0247,0.0317 -1.24073,0.29661 -2.70233,0.58872 -1.79774,0.35928 -3.00661,0.71026 -3.73674,1.08489 -0.72553,0.37229 -1.68103,0.65086 -2.91526,0.84996 -1.00979,0.16289 -2.62086,0.45118 -3.58015,0.64064 -1.90839,0.37691 -3.92248,0.56725 -4.49815,0.42508 z m 26.34629,5.5384 c -1.15165,-0.40958 -2.23901,-0.93548 -3.3992,-1.64404 -0.68135,-0.41612 -1.61913,-1.63744 -1.89952,-2.47382 -0.11506,-0.34325 -0.20921,-1.48535 -0.20921,-2.538 0,-1.55448 0.0862,-2.17068 0.45899,-3.28123 0.25245,-0.75203 0.45899,-1.44911 0.45899,-1.54909 0,-0.41728 2.25441,-4.7015 2.88451,-5.48164 1.06239,-1.31537 2.55519,-2.6992 4.45941,-4.13388 2.41278,-1.81784 2.61056,-1.94092 5.32434,-3.31348 0.75734,-0.38304 1.52321,-0.77064 1.70193,-0.86133 0.62876,-0.31903 4.08403,-1.62396 4.3027,-1.62497 0.12172,-5.4e-4 0.97875,-0.2183 1.90452,-0.48385 1.45418,-0.41712 1.91124,-0.46933 3.35886,-0.38371 2.13512,0.12629 4.47186,0.82826 5.79189,1.7399 1.72322,1.19008 1.94714,1.72129 2.14713,5.09357 0.24584,4.14556 -0.80688,6.88609 -3.11338,8.10495 -0.28708,0.15171 -0.57624,0.22167 -0.64259,0.15547 -0.0663,-0.0662 -0.16289,-1.78664 -0.21454,-3.8232 -0.0907,-3.57809 -0.11059,-3.7346 -0.58935,-4.64613 -0.2725,-0.51881 -0.83099,-1.2305 -1.24108,-1.58152 -0.62077,-0.53136 -0.93711,-0.65719 -1.88922,-0.75148 -2.21966,-0.21981 -3.49125,0.11383 -6.68681,1.75448 -0.92822,0.47656 -2.33274,1.11977 -3.12117,1.42934 -0.78842,0.30957 -1.73217,0.7875 -2.09723,1.06206 -2.38293,1.79224 -2.97867,2.25727 -4.31076,3.36496 -3.27347,2.72203 -4.8733,5.37039 -5.14516,8.51732 -0.0944,1.09258 -0.0889,1.10797 0.66718,1.88353 0.77215,0.79201 2.38318,1.66059 3.27386,1.76509 1.17065,0.13734 3.88364,0.75736 3.88364,0.88755 0,0.12122 -1.87673,1.61045 -3.18945,2.5309 -0.21489,0.15068 -0.49988,0.37788 -0.63332,0.5049 -0.33718,0.32096 -0.85137,0.26975 -2.23596,-0.22265 z m -72.42783,15.72339 c -3.49582,-5.53567 4.19644,-7.01407 8.03263,-6.81029 -0.61658,-5.35769 -9.17243,-4.82256 -10.13118,-10.04071 5.48827,-7.67719 12.4405,5.31403 16.07605,5.65118 2.39202,-2.64333 -3.77645,-11.5196 1.13563,-6.54411 4.8098,7.0047 -1.55728,17.62823 -9.78431,17.9034 -1.76475,0.27127 -3.58848,0.26879 -5.32882,-0.15947 z m 76.24785,-6.45289 c -3.37604,1.17543 -2.16069,6.08574 -3.9347,8.79483 -1.80723,3.77106 -2.76786,7.18522 -2.71564,11.19531 3.13229,-1.33092 1.60341,-8.80683 6.95769,-5.60306 0.21967,1.61446 1.28097,7.32816 3.30134,4.73836 -2.16981,-6.16037 -2.86623,-12.6847 -3.60869,-19.12544 z m -1.34821,5.93404 c 1.41395,2.62437 1.32342,9.42081 -1.86474,5.35374 0.809,-1.71479 0.9122,-3.69152 1.86474,-5.35374 z m 40.09923,14.2564 c -3.99087,-3.00442 -3.43764,-8.76275 -2.69414,-13.13248 0.15336,-4.24275 6.39984,-10.38173 9.09957,-4.64587 0.52749,1.79637 -1.88469,7.5287 -1.98883,3.40953 1.87773,-4.54934 -5.53949,-4.49698 -4.9577,0.0873 -0.64778,3.95017 -1.65879,9.42234 1.53467,12.43794 2.13773,2.06972 5.85529,-4.4185 3.96952,0.33458 -1.19231,1.41194 -3.12412,2.47114 -4.96309,1.50904 z m -21.67263,0.3806 c -2.64669,0.5023 -5.7255,-4.39662 -1.78238,-3.75954 2.09698,3.43574 8.58351,2.16134 6.26019,-2.28566 -2.09486,-3.00027 -7.0278,-4.7693 -5.85617,-9.28276 -0.0378,-3.464 4.2216,-6.77983 7.14159,-4.00251 2.70982,0.87611 0.42346,8.15745 -0.55904,4.06284 1.58435,-4.1073 -6.08313,-4.33823 -4.97294,0.0536 0.22823,4.36584 6.45025,5.07223 6.39386,9.63081 0.60917,4.00809 -2.94924,6.49679 -6.62511,5.58319 z m -70.97473,1.55 c 1.14941,-2.0449 8.3247,-2.3726 3.00718,-5.53801 -2.93419,-0.2959 -10.37398,-5.66666 -3.66725,-5.45158 4.77868,0.10845 12.06653,6.84699 5.70283,10.28139 -1.52068,0.8058 -3.3554,1.2232 -5.04276,0.7082 z m 5.3796,1.5676 c -7.27173,0.1935 -10.65499,8.7105 -9.19289,14.9814 1.02503,7.9169 7.17913,16.5283 15.8336,16.358 7.53259,-0.8795 9.71291,-9.6372 8.07376,-15.9446 -1.24167,-7.3078 -6.51815,-15.3881 -14.71447,-15.3948 z m -1.99384,1.6711 c 6.75405,0.7485 10.09399,7.9869 11.85459,13.7451 1.58973,4.6044 0.654,14.4222 -6.26455,12.459 -7.30583,-3.213 -10.56204,-12.0889 -10.43514,-19.6227 -0.19063,-3.1697 1.14355,-6.6895 4.8451,-6.5814 z"
       inkscape:connector-curvature="0"
       inkscape:export-filename="/home/lemaitre/Desktop/ascfours.png"
       inkscape:export-xdpi="200"
       inkscape:export-ydpi="200" />
    <text
       xml:space="preserve"
       style="font-size:14px;font-style:normal;font-variant:normal;font-weight:normal;font-stretch:normal;line-height:125%;letter-spacing:0px;word-spacing:0px;fill:#000000;fill-opacity:1;stroke:none;font-family:Thwart BRK;-inkscape-font-specification:Thwart BRK"
       x="349.09192"
       y="487.38446"
       id="text4316"
       sodipodi:linespacing="125%"><tspan
         sodipodi:role="line"
         id="tspan4318"
         x="349.09192"
         y="487.38446"
         style="-inkscape-font-specification:Chemical Reaction A BRK;font-family:Chemical Reaction A BRK;font-weight:normal;font-style:normal;font-stretch:normal;font-variant:normal;fill:#aa0000">Rando-Trail</tspan></text>
    <path
       style="fill:#7b6b94;fill-opacity:1"
       d="m 227.51323,974.51059 c -6.89199,9.04437 -14.07259,17.91251 -20.01635,27.63001 -0.86484,2.3903 -2.65097,4.9691 -1.47856,7.5692 1.2884,2.5131 4.67752,0.7658 5.17184,-1.4524 2.54427,-4.6364 5.63611,-8.93064 8.90536,-13.0775 1.74324,-2.10807 2.99263,-4.55757 4.6166,-6.74142 0.97049,-1.46995 3.08408,-2.52835 4.44018,-0.91385 1.65944,1.62067 2.32152,3.95066 3.79886,5.71969 3.83833,5.70485 7.32587,11.72078 12.11472,16.70948 2.34712,0.9284 4.35645,-1.8082 4.12602,-3.9704 -0.58691,-3.1911 -3.72994,-4.9294 -5.15134,-7.69017 -5.01349,-8.26408 -10.9212,-15.92326 -16.52733,-23.78264 z"
       id="path3031"
       inkscape:connector-curvature="0"
       inkscape:export-filename="/home/lemaitre/Desktop/mairie-luzy.png"
       inkscape:export-xdpi="200"
       inkscape:export-ydpi="200" />
    <path
       style="fill:#f29900;fill-opacity:1"
       d="m 493.32288,897.4311 c 0.002,-0.16314 0.39972,-1.65818 0.88509,-3.32232 1.5792,-5.4145 2.09142,-7.52767 2.35741,-9.72545 0.24934,-2.06023 0.55537,-3.13269 1.94262,-6.80782 0.33652,-0.8915 0.77366,-2.20444 0.97143,-2.91764 0.19776,-0.7132 0.58308,-1.92888 0.85626,-2.70151 0.79025,-2.23514 1.42362,-4.1369 1.72746,-5.18692 0.15479,-0.5349 0.52289,-1.6047 0.81801,-2.37733 0.29512,-0.77263 0.85025,-2.86361 1.23363,-4.64661 0.38337,-1.783 0.88819,-3.9226 1.12181,-4.75466 0.23364,-0.83208 0.57298,-2.04776 0.75409,-2.70152 0.18113,-0.65378 0.60486,-1.91808 0.94162,-2.80958 0.33676,-0.8915 0.66302,-1.81542 0.72501,-2.05316 0.95389,-3.65783 2.22772,-7.16133 2.73333,-7.51765 0.20502,-0.1445 0.68884,-0.82356 1.07516,-1.50904 0.38631,-0.68548 0.90833,-1.39058 1.16003,-1.56688 0.56991,-0.39918 1.74136,-0.41699 2.06142,-0.0314 0.13201,0.15908 0.61422,0.40132 1.0716,0.53836 1.01696,0.30468 2.6315,2.10529 2.6315,2.93477 0,0.54846 -0.28059,1.52208 -1.6251,5.63895 -0.38821,1.18867 -0.91837,2.89062 -1.17814,3.78213 -0.25977,0.89149 -0.85002,2.59345 -1.31169,3.78211 -0.46165,1.18867 -0.90776,2.45062 -0.99136,2.80433 -0.0836,0.35372 -0.41412,1.22901 -0.73454,1.94509 -0.32041,0.71609 -0.64655,1.59375 -0.72474,1.95034 -0.0783,0.3566 -0.52045,1.57228 -0.98276,2.70153 -0.46229,1.12922 -1.03653,2.63667 -1.27607,3.34987 -0.66605,1.98302 -2.53039,6.42295 -3.83551,9.13424 -0.64453,1.33896 -1.17132,2.50601 -1.17067,2.59345 0.003,0.45521 -3.11419,6.31844 -3.35964,6.31844 -0.16743,0 -0.6693,0.99433 -1.19773,2.37302 -0.58509,1.52648 -1.08037,2.48495 -1.38836,2.68675 -0.76783,0.5031 -1.83583,2.2825 -1.83583,3.05872 0,0.42204 -0.12873,0.74564 -0.32686,0.82167 -0.2563,0.0984 -0.29789,0.01 -0.19268,-0.40912 0.0738,-0.294 0.044,-0.53455 -0.0664,-0.53455 -0.19002,0 -1.82812,3.46831 -2.10886,4.465 -0.16639,0.59075 -0.76438,1.13671 -0.76049,0.69435 z"
       id="path3103"
       inkscape:connector-curvature="0" />
    <path
       style="fill:#8c808c;fill-opacity:1"
       d="m 453.65454,872.07315 c 0.0659,-0.58953 0.21602,-1.1682 0.33374,-1.28592 0.11773,-0.11774 0.21405,-0.53499 0.21405,-0.92725 0,-0.61118 -0.0751,-0.7132 -0.52514,-0.7132 -0.40843,0 -0.63605,0.22207 -1.02414,0.99912 -0.52826,1.05776 -0.92855,1.36416 -1.29865,0.99408 -0.26973,-0.26973 0.16818,-1.75354 1.22609,-4.15441 0.39281,-0.89151 0.90953,-2.20444 1.14826,-2.91764 0.23872,-0.71321 0.77412,-2.1234 1.18977,-3.13376 0.41566,-1.01037 0.95269,-2.42056 1.1934,-3.13376 0.24072,-0.7132 0.94221,-2.56104 1.55888,-4.10631 1.43249,-3.58957 2.6861,-6.88541 3.05235,-8.02486 0.15785,-0.49107 0.95673,-2.58204 1.77531,-4.64661 1.70471,-4.2996 2.91748,-7.50446 3.54682,-9.37291 0.24024,-0.71319 0.79397,-2.26926 1.23054,-3.45794 0.43657,-1.18865 0.91106,-2.54829 1.05443,-3.02139 l 0.26066,-0.86018 2.24451,-0.29496 c 1.44685,-0.19013 2.48078,-0.22627 2.90937,-0.10168 0.61388,0.17845 0.66487,0.26706 0.66487,1.15514 0,0.99108 0.15314,1.10574 1.00713,0.75408 0.31793,-0.13091 0.33579,-0.0455 0.15703,0.75006 -0.34853,1.55125 -2.04038,6.23305 -3.59183,9.9396 -2.87458,6.86763 -3.822,9.05891 -3.88816,8.99277 -0.0367,-0.0367 0.42515,-1.36675 1.02628,-2.95569 0.60114,-1.58894 1.06263,-3.08672 1.02555,-3.3284 -0.0479,-0.3123 -0.16951,-0.15809 -0.42036,0.53315 -1.99964,5.51019 -7.00588,17.97334 -7.69039,19.14538 -0.48057,0.82285 -1.04267,2.07919 -1.24911,2.79187 -0.25815,0.89116 -0.60546,1.51358 -1.11227,1.99328 -0.44803,0.42405 -0.8588,1.1079 -1.0478,1.74432 -0.22413,0.75476 -0.55008,1.23907 -1.1682,1.7358 -0.94722,0.7612 -1.93559,2.17022 -3.13363,4.46724 l -0.78905,1.51284 0.11969,-1.07187 z"
       id="path3101"
       inkscape:connector-curvature="0" />
    <path
       style="fill:#8c808c;fill-opacity:1"
       d="m 406.60931,871.31199 c -1.33157,-0.73519 -2.08512,-1.45826 -1.99056,-1.91005 0.0418,-0.19977 0.42544,-2.16243 0.8525,-4.36147 0.82534,-4.24993 1.18678,-5.72182 1.83095,-7.45617 0.22075,-0.59435 0.61044,-1.81003 0.86602,-2.70153 0.25556,-0.8915 0.54744,-1.86405 0.64863,-2.16121 0.10115,-0.29717 0.39576,-1.26971 0.65464,-2.16122 0.25886,-0.8915 0.6065,-2.03764 0.7725,-2.54697 0.16601,-0.50934 0.30183,-1.07243 0.30183,-1.25131 0,-0.17888 0.19245,-0.70246 0.42765,-1.16351 0.36002,-0.70569 0.60783,-0.89311 1.56689,-1.18499 1.36988,-0.41693 4.64573,-0.90062 4.83275,-0.71359 0.0734,0.0733 -0.20858,1.185 -0.62655,2.47031 -0.43167,1.32742 -0.80815,2.99043 -0.87155,3.84976 -0.0614,0.83207 -0.29889,2.04776 -0.5278,2.70152 -1.22715,3.50489 -1.39297,4.16131 -1.27401,5.04305 0.091,0.67479 -0.20139,2.19942 -1.16755,6.0872 -1.25198,5.03795 -1.60687,6.15945 -1.94908,6.15945 -0.0905,0 -0.19565,-0.20141 -0.23363,-0.44758 -0.0653,-0.42357 -0.10384,-0.41402 -0.71742,0.17802 -0.3566,0.34408 -1.03739,0.96473 -1.51285,1.37921 l -0.86449,0.75362 -1.01887,-0.56254 z"
       id="path3099"
       inkscape:connector-curvature="0" />
    <path
       style="fill:#8c808c;fill-opacity:1"
       d="m 431.50959,870.5608 c -4.94269,-1.34645 -7.61308,-6.72898 -6.70595,-13.51681 0.39819,-2.97959 1.56489,-6.53579 2.83947,-8.65492 0.3899,-0.64822 1.1471,-1.90801 1.68266,-2.79952 1.06235,-1.76838 4.04852,-4.90367 5.63759,-5.91912 0.53719,-0.34328 1.70612,-0.97358 2.59762,-1.40067 1.62022,-0.77619 1.62221,-0.77654 4.64661,-0.78064 2.86369,-0.004 3.11107,0.0304 4.62024,0.64135 1.93849,0.78469 3.38781,1.99628 3.68786,3.08293 0.11934,0.43222 0.19166,0.81117 0.16071,0.84211 -0.031,0.0309 -0.75238,0.35249 -1.6032,0.71454 -2.11996,0.90213 -2.69277,0.86888 -3.76962,-0.2188 -0.76439,-0.77206 -0.94998,-0.85951 -1.54993,-0.73039 -0.94306,0.20297 -1.78103,0.64612 -3.14208,1.66164 -3.86903,2.88681 -7.36635,7.77564 -8.77387,12.26475 -0.51436,1.64054 -0.56937,2.11919 -0.51428,4.47472 0.034,1.45074 -0.008,2.70694 -0.0922,2.79157 -0.23839,0.2384 -0.16898,1.0183 0.12314,1.38364 1.1863,1.48359 3.14837,1.74311 5.01796,0.66372 1.55993,-0.90062 4.63945,-3.97952 5.80548,-5.80434 1.03929,-1.62645 2.59731,-5.07599 3.26886,-7.2374 0.21621,-0.6959 0.5125,-1.24269 0.67337,-1.24269 0.15799,0 0.60664,-0.13607 0.99698,-0.30238 0.39035,-0.16629 1.14738,-0.47033 1.68228,-0.67563 0.5349,-0.2053 1.42336,-0.60414 1.97434,-0.88631 0.55099,-0.28216 1.20746,-0.51301 1.45882,-0.51301 0.4034,0 0.45703,0.12484 0.45703,1.06404 0,1.61002 -1.18082,6.13004 -2.23718,8.56368 -0.91577,2.10969 -1.41436,2.97163 -2.74443,4.74434 -0.35674,0.47546 -0.98565,1.35076 -1.39759,1.94509 -2.11649,3.05372 -3.3439,4.16625 -4.79501,4.34623 -0.45084,0.0559 -1.33235,0.33636 -1.9589,0.62321 -1.98639,0.90939 -6.22765,1.37062 -8.04679,0.87507 z"
       id="path3097"
       inkscape:connector-curvature="0" />
    <path
       style="fill:#8c808c;fill-opacity:1"
       d="m 479.90079,870.36674 c 0.60283,-0.74072 0.003,-0.85563 -2.45411,-0.47032 -2.33122,0.36557 -2.85709,0.33658 -4.72728,-0.26061 -2.77891,-0.88734 -5.5498,-4.65246 -5.5498,-7.5411 0,-1.63591 0.38442,-2.02392 2.01138,-2.03018 0.73618,-0.003 1.72752,-0.0956 2.20299,-0.20611 0.47546,-0.11053 1.08257,-0.14648 1.3491,-0.0799 0.40557,0.10126 0.45895,0.21424 0.32723,0.69238 -0.30876,1.12085 -0.16657,2.79179 0.27949,3.28469 0.79514,0.87862 1.58514,1.13355 3.11527,1.00527 1.75775,-0.14738 3.36074,-0.76401 4.82712,-1.85694 1.36577,-1.01793 3.10942,-1.80426 3.63264,-1.63819 0.21185,0.0672 0.79783,-0.0771 1.30216,-0.32078 0.50433,-0.24367 1.18473,-0.44303 1.51199,-0.44303 0.32726,0 0.65883,-0.1033 0.73682,-0.22946 0.23646,-0.3826 1.14751,-0.63327 1.63977,-0.45118 0.43311,0.16021 0.39767,0.22558 -0.53815,0.99242 -1.58396,1.29794 -1.21413,1.84746 0.66827,0.99295 0.54021,-0.24523 0.966,-0.33002 1.04177,-0.20743 0.22595,0.3656 -0.7486,1.65441 -1.53217,2.02623 -0.86479,0.41038 -2.26028,1.72726 -2.26028,2.13297 0,0.27158 -0.98355,0.90725 -3.7405,2.41742 -0.80918,0.44324 -1.67304,1.07886 -1.91969,1.41247 -0.24667,0.33362 -0.66969,0.6621 -0.94006,0.72996 -0.27038,0.0678 -0.67082,0.19064 -0.88988,0.27282 -0.35436,0.13298 -0.36474,0.10822 -0.0941,-0.22435 z"
       id="path3095"
       inkscape:connector-curvature="0" />
    <path
       style="fill:#8c808c;fill-opacity:1"
       d="m 371.52113,868.82036 c -1.18375,-0.51973 -1.23905,-0.70779 -1.31569,-4.47393 -0.0601,-2.95156 0.0125,-3.97397 0.47589,-6.71257 0.51446,-3.03983 0.89857,-4.32232 2.63634,-8.80248 0.29969,-0.77264 0.71588,-1.95841 0.92487,-2.63504 0.20899,-0.67664 0.5702,-1.5033 0.80271,-1.83703 0.23251,-0.33373 0.66449,-1.14169 0.95995,-1.79546 0.64242,-1.42143 2.28251,-3.86303 3.44527,-5.12897 1.27119,-1.38398 1.61908,-1.38692 3.64856,-0.0307 1.03532,0.69181 1.72836,1.30296 1.72836,1.52413 0,0.44389 -1.22598,4.16088 -1.63435,4.95513 -0.15923,0.30969 -0.66759,1.13636 -1.12972,1.83704 -0.99441,1.50775 -2.27828,3.95237 -2.71213,5.16416 -0.17023,0.47546 -0.9063,2.32301 -1.63569,4.10567 -1.02151,2.49655 -1.37102,3.63853 -1.52134,4.97078 -0.119,1.05465 -0.11718,1.75773 0.004,1.80166 0.1099,0.0397 0.19982,0.20981 0.19982,0.3782 0,0.66978 1.34698,0.26688 4.39534,-1.31473 3.86776,-2.00675 5.06285,-2.20269 3.11487,-0.5107 -0.7453,0.64736 -0.867,0.85079 -0.64534,1.07872 0.21753,0.22368 0.41272,0.22821 0.95829,0.0223 0.37682,-0.14224 0.7229,-0.22085 0.76906,-0.17468 0.0461,0.0461 -0.15951,0.60368 -0.45706,1.23894 -0.3507,0.74874 -0.91564,1.45908 -1.60609,2.01949 -0.5858,0.47546 -1.22016,1.13193 -1.40969,1.45882 -0.20072,0.34618 -0.53153,0.59433 -0.79231,0.59433 -0.3192,0 -0.48301,0.1766 -0.57076,0.61533 -0.10361,0.51799 -0.30233,0.67183 -1.25628,0.97255 -0.62328,0.19646 -1.31919,0.35867 -1.54648,0.36047 -0.22728,0.002 -0.80227,0.1434 -1.27773,0.31469 -1.07943,0.38888 -3.67154,0.39115 -4.55335,0.004 z"
       id="path3093"
       inkscape:connector-curvature="0" />
    <path
       style="fill:#ff0000;fill-opacity:1"
       d="m 386.71944,869.0217 c -0.0623,-0.0623 0.12459,-0.60646 0.41536,-1.20921 0.54536,-1.13048 1.10858,-4.75406 1.27065,-8.17505 0.0541,-1.14145 0.30688,-2.29214 0.8547,-3.89019 0.8524,-2.48653 1.28469,-3.86273 1.73117,-5.51109 0.58484,-2.15923 0.94282,-3.28252 1.72185,-5.40302 0.4367,-1.18867 0.91968,-2.6098 1.07331,-3.15808 0.15362,-0.54827 0.63304,-1.6667 1.06535,-2.4854 0.72618,-1.37517 0.8932,-1.54202 2.19313,-2.19079 l 1.40709,-0.70226 0.80594,0.51214 c 0.98502,0.62592 1.49306,1.18569 1.59454,1.75687 0.0478,0.26924 0.3415,0.51021 0.77873,0.63902 0.38608,0.11373 0.70195,0.32781 0.70195,0.47573 0,0.97111 -1.54755,5.40495 -3.32963,9.53966 -0.78377,1.81846 -1.42503,3.44173 -1.42503,3.60728 0,0.16554 -0.11229,0.37037 -0.24953,0.45519 -0.15459,0.0956 -0.19084,0.0593 -0.0953,-0.0953 0.0848,-0.13723 0.0729,-0.24951 -0.0267,-0.24951 -0.18719,0 -1.29372,2.8888 -1.90403,4.97079 -0.62385,2.12819 -2.36631,5.73331 -2.74018,5.66935 -0.18602,-0.0318 -0.39422,0.0881 -0.46268,0.26651 -0.0685,0.17841 -0.25269,0.27517 -0.4094,0.21504 -0.18149,-0.0697 -0.49938,0.3279 -0.87566,1.09514 -0.34494,0.7033 -0.68673,1.14517 -0.82142,1.06193 -0.2955,-0.18264 -1.49229,0.95401 -1.49229,1.41728 0,0.43854 -1.53548,1.63452 -1.78201,1.38798 z"
       id="path3091"
       inkscape:connector-curvature="0" />
    <path
       style="fill:#8c808c;fill-opacity:1"
       d="m 511.47447,867.65493 c 0,-0.13274 0.20913,-0.41059 0.46473,-0.61745 0.25559,-0.20685 0.62305,-0.52198 0.81656,-0.70028 0.76613,-0.70588 2.54647,-2.09806 3.36532,-2.63158 1.35792,-0.88475 6.39804,-5.60293 7.60924,-7.12319 0.60271,-0.75651 1.59102,-1.98151 2.19624,-2.72222 0.60523,-0.7407 1.39295,-1.86509 1.75051,-2.49863 1.78126,-3.15622 2.06035,-6.85263 0.5174,-6.85263 -0.83136,0 -3.73236,1.49528 -6.56517,3.38393 -0.77422,0.51618 -1.57657,0.9385 -1.78301,0.9385 -0.40303,0 -0.51584,-0.53601 -0.15921,-0.75643 0.32108,-0.19843 0.26173,-0.97255 -0.0746,-0.97255 -0.15987,0 -0.44529,-0.17083 -0.63425,-0.37963 -0.3155,-0.34863 -0.29286,-0.55013 0.27734,-2.46807 0.81265,-2.73339 1.26475,-3.39473 2.781,-4.06817 1.02472,-0.45514 1.54012,-0.5394 3.26963,-0.53452 1.86492,0.005 2.20968,0.0746 3.76051,0.75643 2.63337,1.15774 4.87246,3.42561 5.65351,5.72617 0.54353,1.60094 0.34461,4.52602 -0.43767,6.43536 -1.24457,3.03771 -4.55424,7.33499 -7.55489,9.80931 -1.50665,1.24237 -5.23888,3.98736 -6.25524,4.60063 -0.81492,0.49171 -0.83203,0.49312 -0.6936,0.057 0.21437,-0.67544 -0.19437,-0.76636 -1.18144,-0.2628 -0.71099,0.36272 -0.95163,0.4007 -1.20524,0.19022 -0.24001,-0.19919 -0.37756,-0.20228 -0.56706,-0.0128 -0.1376,0.1376 -0.44031,0.25019 -0.6727,0.25019 -0.39583,0 -0.3999,-0.0249 -0.0644,-0.39575 0.54297,-0.59999 0.18668,-0.71692 -0.74155,-0.24337 -0.45602,0.23265 -1.07039,0.42299 -1.36527,0.42299 -0.2949,0 -0.58909,0.0857 -0.65379,0.19032 -0.0647,0.10469 -0.33788,0.23804 -0.60709,0.29638 -0.2692,0.0584 -0.65965,0.17762 -0.86767,0.26506 -0.22933,0.0964 -0.37822,0.064 -0.37822,-0.0823 z"
       id="path3089"
       inkscape:connector-curvature="0" />
    <path
       style="fill:#8c808c;fill-opacity:1"
       d="m 481.68864,858.65726 c 0.7592,-0.41225 3.09616,-0.95767 4.12056,-0.96171 0.44528,-0.002 1.41782,-0.20052 2.16122,-0.44169 2.61362,-0.84791 3.3093,-1.03842 4.70149,-1.28752 0.77264,-0.13824 1.84244,-0.38326 2.37735,-0.5445 1.95555,-0.58946 2.80957,-0.71604 2.80957,-0.41642 0,0.45199 -0.6106,0.93172 -1.46854,1.15382 -0.4404,0.11401 -1.23838,0.32249 -1.77328,0.46328 -0.5349,0.1408 -1.55608,0.33672 -2.26928,0.43538 -0.7132,0.0987 -3.3877,0.5724 -5.94333,1.05276 -5.09142,0.95699 -5.57472,1.01301 -4.71576,0.5466 z"
       id="path3087"
       inkscape:connector-curvature="0" />
    <path
       style="fill:#00f2ff;fill-opacity:1"
       d="m 471.16492,858.31586 c -0.42288,-0.20573 -1.83411,-2.646 -1.83411,-3.17148 0,-0.14388 0.15804,-0.26161 0.35121,-0.26161 0.27691,0 0.32306,-0.14067 0.21818,-0.66508 -0.12937,-0.64679 -0.115,-0.66113 0.52213,-0.52119 0.36034,0.0791 0.77275,0.0504 0.91646,-0.064 0.14372,-0.11433 0.7962,-0.26827 1.44996,-0.34205 3.7606,-0.4244 5.68223,-0.60966 7.0823,-0.68277 0.86415,-0.0451 1.64218,-0.12283 1.72897,-0.17266 0.0867,-0.0499 0.64404,-0.16074 1.23838,-0.24644 0.59433,-0.0857 1.17786,-0.23517 1.29672,-0.33213 0.11887,-0.097 2.20985,-0.53044 4.64662,-0.96325 2.43676,-0.43281 5.15988,-0.9338 6.05139,-1.1133 0.8915,-0.17951 2.69071,-0.369 3.99824,-0.4211 l 2.37733,-0.0947 -0.92458,0.44283 c -0.50851,0.24357 -0.86748,0.53523 -0.7977,0.64815 0.0698,0.1129 0.65605,0.20529 1.3028,0.20529 0.80031,0 1.17372,0.0863 1.16904,0.27015 -0.008,0.30807 -0.51131,1.02657 -0.71934,1.02657 -0.076,0 -0.32736,0.18909 -0.55846,0.42019 -0.23111,0.23111 -0.74168,0.4721 -1.13464,0.53554 -2.58757,0.41776 -8.0842,1.47656 -8.27033,1.59309 -0.12347,0.0773 -0.36239,0.16138 -0.53096,0.18687 -0.16855,0.0255 -0.57795,0.24703 -0.90975,0.49235 -0.33182,0.24532 -0.78343,0.44603 -1.00359,0.44603 -0.22016,0 -1.12371,0.18712 -2.00787,0.41581 -0.88418,0.22869 -1.89936,0.47073 -2.25595,0.53787 -1.17497,0.22122 -4.2176,0.94634 -4.5978,1.09574 -1.88581,0.74109 -7.78087,1.23339 -8.80465,0.7353 z"
       id="path3085"
       inkscape:connector-curvature="0" />
    <path
       style="fill:#8c808c;fill-opacity:1"
       d="m 474.22637,851.40998 c 0.24239,-0.40786 0.67176,-1.13059 0.95416,-1.60606 1.10468,-1.85985 3.34814,-4.58777 5.4835,-6.66764 2.84479,-2.77087 6.12819,-5.09613 7.79726,-5.52188 0.4734,-0.12076 1.39565,-0.37593 2.04941,-0.56704 3.42458,-1.00108 7.8267,1.03933 9.33717,4.32783 0.40873,0.88983 0.49635,1.44863 0.49635,3.16516 0,2.40575 -0.29803,2.9943 -1.51627,2.9943 -0.38106,0 -1.94638,0.19348 -3.47847,0.42995 -1.53209,0.23648 -2.87072,0.43098 -2.97473,0.43225 -0.36005,0.004 0.092,-1.40641 0.74118,-2.31303 1.3295,-1.85674 1.66284,-3.54324 0.84637,-4.28212 -0.39774,-0.35996 -0.54363,-0.37105 -1.56688,-0.11914 -1.24278,0.30596 -2.20788,0.86862 -4.02826,2.34848 -1.49097,1.2121 -4.38096,4.37625 -5.12461,5.61079 -0.42671,0.70837 -0.68456,0.91929 -1.12709,0.92188 -0.70464,0.004 -7.32818,1.19624 -7.90972,1.42361 -0.40873,0.1598 -0.40817,0.14423 0.0206,-0.57734 z"
       id="path3083"
       inkscape:connector-curvature="0" />
    <path
       style="fill:#ff0000;fill-opacity:1"
       d="m 442.9797,849.55865 c -0.24636,-0.3132 -0.44793,-0.69721 -0.44793,-0.85335 0,-0.15614 -0.25287,-0.55636 -0.56194,-0.88937 -0.50322,-0.54221 -0.5523,-0.7392 -0.46976,-1.88563 0.0821,-1.14079 0.17257,-1.34729 0.83079,-1.89679 0.69331,-0.57881 0.75594,-0.59308 1.0208,-0.23269 0.2326,0.3165 0.57144,0.37697 1.92883,0.34426 1.71013,-0.0413 4.38948,-0.58889 5.13971,-1.05058 0.23774,-0.14631 0.82127,-0.33072 1.29673,-0.40982 0.79036,-0.13149 1.63746,-0.41449 5.07885,-1.69678 0.65377,-0.2436 1.45957,-0.6299 1.79067,-0.85844 0.63053,-0.43522 1.23503,-0.37731 1.23503,0.11831 0,0.16002 -0.3463,0.45608 -0.76955,0.65791 -0.56279,0.26837 -0.75149,0.48416 -0.70239,0.80322 0.0487,0.31592 -0.16558,0.56851 -0.77661,0.91576 -1.16099,0.65978 -1.43239,1.13327 -0.88078,1.53662 0.23492,0.17178 0.37866,0.35468 0.31941,0.40645 -0.25956,0.22677 -2.78821,1.79613 -3.67372,2.28002 -3.08622,1.68649 -5.1489,2.56077 -7.02395,2.97719 -2.05751,0.45693 -2.81275,0.39661 -3.33419,-0.26629 z"
       id="path3081"
       inkscape:connector-curvature="0" />
    <path
       style="fill:#8c808c;fill-opacity:1"
       d="m 501.92461,848.89986 c 0.15601,-0.0625 0.34242,-0.0547 0.41423,0.0171 0.0718,0.0718 -0.0559,0.12289 -0.28366,0.11351 -0.25177,-0.0107 -0.30297,-0.0616 -0.13057,-0.13057 z"
       id="path3079"
       inkscape:connector-curvature="0" />
    <path
       style="fill:#99ff26;fill-opacity:1"
       d="m 405.82867,842.88664 c -0.25837,-0.32845 -0.46976,-0.71169 -0.46976,-0.85163 0,-0.13995 -0.20525,-0.67926 -0.4561,-1.19847 -0.45267,-0.93691 -0.45302,-0.95146 -0.0472,-1.93166 l 0.40887,-0.98763 1.61411,-0.1475 c 1.55852,-0.14244 3.08287,-0.43558 6.0446,-1.16242 2.2331,-0.54803 7.04763,-1.61098 9.40127,-2.07561 1.18867,-0.23465 2.34088,-0.52387 2.56047,-0.64271 0.21959,-0.11884 1.48391,-0.40307 2.80959,-0.63162 1.32567,-0.22855 3.18835,-0.55849 4.13928,-0.73318 0.95094,-0.1747 2.79878,-0.5142 4.1063,-0.75443 1.30754,-0.24024 2.57523,-0.4837 2.8171,-0.54102 0.34039,-0.0806 0.4493,0.0111 0.48198,0.40594 0.0328,0.39609 -0.13803,0.59448 -0.76394,0.88731 -0.44339,0.20744 -1.0493,0.54127 -1.34647,0.74184 -0.29716,0.20057 -1.28613,0.62494 -2.19768,0.94304 -1.90762,0.66567 -4.54946,1.8766 -4.06984,1.86546 0.1783,-0.004 0.90772,-0.14843 1.62091,-0.32064 0.7132,-0.1722 1.47267,-0.31462 1.6877,-0.31648 0.70658,-0.006 0.17716,0.37081 -0.87356,0.62192 -0.56665,0.13541 -1.51653,0.45185 -2.11086,0.7032 -1.78449,0.75466 -1.91741,0.80211 -2.64967,0.94584 -0.3875,0.0761 -0.97103,0.26563 -1.29672,0.42127 -1.1537,0.55129 -2.12071,0.9159 -3.40174,1.28265 -0.7132,0.20418 -1.783,0.51358 -2.37733,0.68754 -0.59434,0.17395 -1.59381,0.40898 -2.22106,0.52227 -0.62726,0.11329 -1.30803,0.29189 -1.51285,0.39689 -0.20482,0.10501 -1.15043,0.25305 -2.10137,0.32899 -1.21133,0.0967 -1.80555,0.24152 -1.98475,0.4836 -0.29013,0.39193 -4.01992,1.33821 -6.02825,1.52941 -1.24482,0.11852 -1.33773,0.0939 -1.783,-0.47217 z"
       id="path3077"
       inkscape:connector-curvature="0" />
    <path
       style="fill:#8c808c;fill-opacity:1"
       d="m 413.36234,835.18292 c 0.0109,-0.45494 1.07816,-2.4077 2.22973,-4.07946 2.21,-3.20831 7.9025,-8.19783 10.4518,-9.16107 2.12431,-0.80268 4.35879,-0.80873 6.80825,-0.0185 1.21713,0.3927 1.24219,0.41754 1.783,1.76847 0.35839,0.89523 0.54853,1.78883 0.54853,2.57794 0,1.08368 -0.0721,1.27523 -0.7024,1.86492 -1.39464,1.30489 -4.26839,2.11021 -4.26839,1.19614 0,-0.21821 -0.14588,-0.45272 -0.32418,-0.52114 -0.23725,-0.091 -0.32419,-0.46483 -0.32419,-1.39389 0,-1.17635 -0.0399,-1.27951 -0.54425,-1.40609 -1.00561,-0.25239 -2.76794,0.89428 -4.9032,3.19029 -1.0687,1.14916 -2.0689,2.26758 -2.22267,2.4854 -0.15376,0.2178 -0.77383,0.91839 -1.37792,1.55684 -1.01666,1.0745 -1.22337,1.18946 -2.77894,1.54566 -2.56525,0.58738 -4.38367,0.75132 -4.37517,0.39446 z"
       id="path3073"
       inkscape:connector-curvature="0" />
  </g>
</svg>
